<?xml version="1.0" encoding="UTF-8"?>
<svg id="Layer_1" data-name="Layer 1" xmlns="http://www.w3.org/2000/svg" viewBox="0 0 3360 2370">
  <defs>
    <style>
      .cls-1, .cls-2, .cls-3, .cls-4, .cls-5, .cls-6, .cls-7, .cls-8 {
        font-weight: 700;
      }

      .cls-1, .cls-3, .cls-4, .cls-5, .cls-8 {
        font-family: Roboto-Bold, Roboto;
      }

      .cls-1, .cls-5 {
        font-size: 50px;
      }

      .cls-9 {
        fill: #e900b8;
      }

      .cls-9, .cls-10, .cls-11, .cls-12 {
        stroke: #fff;
        stroke-miterlimit: 10;
        stroke-width: 2px;
      }

      .cls-10 {
        fill: #2500ca;
      }

      .cls-13 {
        fill: #00aa39;
      }

      .cls-14 {
        fill: #ffb96a;
      }

      .cls-15, .cls-2, .cls-4, .cls-5, .cls-6, .cls-7, .cls-8 {
        fill: #fff;
      }

      .cls-2 {
        font-size: 9.27px;
      }

      .cls-2, .cls-6, .cls-7 {
        font-family: Arial-BoldMT, Arial;
      }

      .cls-16, .cls-17, .cls-18 {
        fill: none;
      }

      .cls-19 {
        fill: #3ac8f4;
      }

      .cls-17 {
        stroke: #000;
      }

      .cls-17, .cls-18 {
        stroke-linecap: round;
        stroke-linejoin: round;
      }

      .cls-3 {
        font-size: 21.55px;
      }

      .cls-4 {
        font-size: 27.8px;
      }

      .cls-20 {
        fill: #8fc168;
      }

      .cls-11 {
        fill: #4a0095;
      }

      .cls-12 {
        fill: #6e00dd;
      }

      .cls-21 {
        fill: #935e25;
      }

      .cls-6 {
        font-size: 6.48px;
      }

      .cls-22 {
        fill: #006d28;
      }

      .cls-7 {
        font-size: 7.78px;
      }

      .cls-8 {
        font-size: 16px;
      }

      .cls-23 {
        fill: #bf1e53;
      }

      .cls-18 {
        stroke: lime;
        stroke-width: .72px;
      }
    </style>
  </defs>
  <rect class="cls-15" width="3360" height="2370"/>
  <polygon class="cls-20" points="1416.88 585.88 1515.64 614.8 1668.91 671.71 1903.66 728.03 2040.49 924.85 2230.48 1013.92 2397.64 1008.4 2748.28 899.44 3072.49 840.37 3141.16 1000.36 3086.68 1234.48 3086.68 1485.52 2331.88 1486.12 2104.12 1661.92 2110.82 1578 1898.21 1505.83 1707.23 1713.91 1585.7 1464.47 1399.12 1562.32 1159.12 1775.68 1135.72 1734.88 1145.08 1733.08 1151.68 1729.6 1079.56 1591.24 1120.48 1565.92 1013.32 1340.32 940.84 1374.52 816.52 1266.4 794.56 1244.2 746.08 1162 762.52 1152.4 726.4 1063.48 736 1054.9 705.28 998.68 657.88 1028.56 633.4 987.16 577.72 925.12 543.52 885.28 337.96 607.48 236.92 471.4 291.28 424.24 288.4 430.6 287.68 457.72 306.4 466.12 344.68 474.4 346.72 487 338.68 504.88 341.17 520.99 351.64 526.6 362.8 529.6 371.85 529.6 379.51 525.67 390.16 510.64 397.72 504.52 405.4 508.72 411.28 513.64 421.36 518.8 431.62 518.68 441.04 515.32 449.83 508.57 456.16 497.44 470.74 507.82 485.2 534.04 514.81 512.71 527.44 515.68 549.88 544.96 567.76 552.16 583.24 551.44 598.96 543.16 606.52 531.04 617.2 527.92 642.61 539.83 644.8 537.52 643.24 528.52 649.12 503.8 659.32 492.52 673.84 496 685.72 507.4 691.72 524.44 702.16 531.64 717.28 526.96 768.52 519.4 783.64 529.96 793.12 543.76 867.32 530.46 894.16 518.92 967.48 469.12 1006.84 485.2 1057 512.92 1091.8 528.64 1104.16 531.7 1135.96 531.4 1141.12 532.12 1145.2 526 1154.8 522.64 1165.6 523.12 1165.72 516.52 1169.56 502 1204.96 506.32 1221.04 547.48 1235.44 609.52 1245.16 645.64 1259.8 682.72 1265.2 697.6 1269.87 723.73 1304.32 763.24 1311.64 795.76 1317.04 810.4 1333.84 828.16 1347.16 833.08 1358.32 833.8 1379.08 824.32 1394.56 814.6 1410.3 794.64 1410.31 769.63 1417.84 736.96 1419.4 712.48 1402.96 674.68 1402 666.16 1408.36 642.28 1418.68 623.56 1417.6 603.28 1416.88 585.88"/>
  <path class="cls-17" d="M2103.4,1897.84l-27.6-110.28-.13-.07c-4.65-18.58-14.74-35.34-28.97-48.16l-6.84-6.12c-16.5-14.86-37.64-23.56-59.82-24.63h.13s-144.24-6.95-144.24-6.95v-.04c-16.18-.78-29.89-12.19-33.6-27.96v.04s-3.96-16.68-3.96-16.68l.02-.07c-1.07-4.57-4.59-8.18-9.14-9.36-4.55-1.18-9.38.25-12.54,3.73l.06.19-67.68,74.4-.08-.15c-2.18,2.4-2.7,5.88-1.31,8.8l.07.11,5.88,12.36,14.04,27.84,140.76,262.56h-.13c1.17,2.17,3.28,3.68,5.72,4.09h.05s203.52,33.95,203.52,33.95h-.05c4.29.73,8.37-2.13,9.16-6.41v.05s18.85-102.12,18.85-102.12l-.07-.04c4.23-22.92,3.49-46.48-2.17-69.08"/>
  <path class="cls-13" d="M1168.72,1549.36l42-17.64,45.84,109.07-34.32,30.01-2.95-.64"/>
  <polygon class="cls-13" points="759.26 1160.81 790.58 1144.81 813.16 1199.16 810.21 1206.43 791.15 1214.6 759.26 1160.81"/>
  <polygon class="cls-11" points="1730.2 1220.92 1727.32 1213.96 1692.04 1129.84 1491.16 1213.96 1488.4 1220.92 1495.12 1237 1531.12 1323.16 1736.92 1237 1730.2 1220.92"/>
  <polygon class="cls-11" points="1773.04 1323.16 1736.92 1237 1531.12 1323.16 1545.04 1356.28 1572.04 1420.84 1579.24 1424.08 1589.08 1420.84 1786.84 1356.28 1773.04 1323.16"/>
  <path class="cls-21" d="M1194.76,1386.6c4.55,2.54,7.63,7.37,10.06,11.89,2.55,4.84,3.34,12.64,4.68,18.83,3.34,19.62,9.04,42.79,10.64,58.47-.15,4.75-1.44,7.92-1.05,13.01.14,2.85.69,6.44,1.6,10.21,1.4,7.27,5.41,16.95,2.47,22.22-3.14,4.39-9.86,6.46-15,5.36-4.99-1.01-7.1-5.95-10.9-8.86-3.11-2.71-7.8-5.18-12.2-7.7-4.28-2.4-8.98-5-13.99-4.25-6.27.64-11.04,6.21-15.11,1.56-1.31-1.6-2.48-4.12-3.42-6.29-5.15-13.13-14.6-33.88-19.31-47.7-1.15-4.07.05-6.5.5-10.41.15-1.84-.02-4.3-.76-7.51-3.22-13.36-9.58-37.89-12.66-51.1-1.91-6.44,3.14-10.92,9.03-12.19,4.58-1.08,7.55,2.62,8.95,6.55,2.77,6.35,3.69,14.05,7.76,19.35,2.87,2.86,7.14.61,10.47-.43,7.62-2.83,19.61-7.43,27.13-10.22,3.54-1.28,7.47-2.67,10.98-.86"/>
  <polygon class="cls-9" points="2831.92 1422.52 2820.16 1386.4 2709.76 1422.52 2727.16 1475.56 2849.32 1475.56 2831.92 1422.52"/>
  <polygon class="cls-9" points="2811.28 1359.4 2799.52 1323.4 2689.24 1359.4 2698 1386.4 2709.76 1422.52 2820.16 1386.4 2811.28 1359.4"/>
  <polygon class="cls-9" points="2790.76 1296.4 2780.56 1265.32 2773.96 1261.96 2763.52 1265.32 2668.6 1296.4 2677.48 1323.4 2689.24 1359.4 2799.52 1323.4 2790.76 1296.4"/>
  <polygon class="cls-10" points="2291.44 1493.32 2257.36 1389.04 2214.64 1258.36 2208.04 1254.88 2197.6 1258.36 1797.52 1389.04 1831.6 1493.32 1835.44 1504.84 1837.84 1512.28 1860.76 1504.84 1896.04 1493.32 1932.16 1504.84 1955.68 1512.28 2189.44 1586.8 2285.56 1512.28 2295.28 1504.84 2291.44 1493.32"/>
  <polygon class="cls-11" points="1978.72 1237 1942.72 1150.72 1736.92 1237 1755.76 1281.88 1758.4 1288.36 1786.84 1356.28 1994.56 1288.36 1997.56 1281.88 1978.72 1237"/>
  <polygon class="cls-11" points="1933.96 1129.84 1899.88 1048.6 1892.92 1045.72 1886.08 1048.6 1692.04 1129.84 1700.8 1150.72 1736.92 1237 1942.72 1150.72 1933.96 1129.84"/>
  <polygon class="cls-11" points="1525.24 1415.44 1492.72 1337.8 1307.32 1415.44 1316.56 1437.4 1319.68 1444.96 1345.48 1506.52 1348 1512.76 1350.76 1519.24 1353.64 1526.08 1356.64 1533.16 1359.76 1540.6 1363 1548.28 1372.48 1540.6 1382.32 1533.16 1392.28 1526.08 1402.48 1519.24 1412.8 1512.76 1423.36 1506.52 1531.84 1444.96 1534.48 1437.4 1525.24 1415.44"/>
  <polygon class="cls-11" points="1480.96 1309.6 1450.48 1236.88 1443.52 1234 1436.68 1236.88 1262.92 1309.6 1274.8 1337.8 1307.32 1415.44 1492.72 1337.8 1480.96 1309.6"/>
  <polygon class="cls-12" points="2959.96 1281.4 2849.56 1317.52 2828.56 1324.36 2848.6 1385.8 2855.32 1406.32 2918.08 1385.8 2966.44 1324.36 2971.84 1317.52 2959.96 1281.4"/>
  <polygon class="cls-12" points="2335.24 1078.24 2322.04 1037.8 2318.92 1028.44 2241.04 1037.8 2225.68 1078.24 2251.12 1167.52 2260.84 1201.36 2364.4 1167.52 2335.24 1078.24"/>
  <polygon class="cls-12" points="2416.72 1028.44 2413 1017.16 2318.92 1028.44 2355.04 1138.72 2364.4 1167.52 2452.72 1138.72 2416.72 1028.44"/>
  <polygon class="cls-12" points="2530.84 1013.8 2522.92 989.56 2425.84 1013.8 2455.12 1103.56 2465.32 1134.64 2560.24 1103.56 2530.84 1013.8"/>
  <polygon class="cls-12" points="2620.6 989.56 2613.28 966.88 2522.92 989.56 2550.76 1074.76 2560.24 1103.56 2648.56 1074.76 2620.6 989.56"/>
  <polygon class="cls-12" points="2710.96 966.88 2703.64 944.2 2613.28 966.88 2639.08 1045.84 2648.56 1074.76 2736.76 1045.84 2710.96 966.88"/>
  <polygon class="cls-12" points="2801.32 944.2 2793.88 921.64 2703.64 944.2 2727.4 1017.04 2736.76 1045.84 2825.08 1017.04 2801.32 944.2"/>
  <polygon class="cls-12" points="2920.6 918.4 2911.96 892 2806.84 918.4 2826.76 979.36 2837.68 1012.96 2940.52 979.36 2920.6 918.4"/>
  <polygon class="cls-12" points="3082.72 966.04 3081.52 962.2 3060.88 899.2 3052.36 873.04 2972.32 899.2 2992.84 962.2 2981.32 966.04 2982.28 968.8 2992.12 998.8 3083.68 968.8 3082.72 966.04"/>
  <path class="cls-12" d="M3083.68,968.8v.12-.12Z"/>
  <polygon class="cls-12" points="3088.36 1006.72 3087.4 998.8 3083.68 968.92 2992.12 998.8 2968 1006.72 2988.16 1068.52 3016.84 1156.24 3021.52 1170.64 3065.56 1156.24 3095.92 1068.52 3088.36 1006.72"/>
  <polygon class="cls-12" points="2977.36 1035.52 2968 1006.72 2879.68 1035.52 2879.68 1035.52 2923.84 1170.64 2933.2 1199.44 3021.52 1170.64 2977.36 1035.52"/>
  <polygon class="cls-12" points="2895.4 1083.52 2893.12 1076.8 2879.68 1035.52 2753.2 1076.8 2749.84 1083.52 2760.88 1117.48 2774.92 1160.44 2906.44 1117.48 2895.4 1083.52"/>
  <polygon class="cls-12" points="2933.2 1199.44 2920.48 1160.44 2906.44 1117.48 2774.92 1160.44 2774.92 1160.44 2787.64 1199.44 2801.68 1242.4 2933.2 1199.44 2933.2 1199.44"/>
  <polygon class="cls-12" points="2947.24 1242.4 2933.2 1199.44 2801.68 1242.4 2814.52 1281.4 2828.56 1324.36 2959.96 1281.4 2947.24 1242.4"/>
  <polygon class="cls-12" points="2489.56 1389.04 2479.48 1358.2 2384.8 1389.04 2413.12 1475.56 2517.76 1475.56 2489.56 1389.04"/>
  <polygon class="cls-12" points="2678.68 1327.24 2668.6 1296.4 2574.04 1327.24 2622.52 1475.56 2727.16 1475.56 2678.68 1327.24"/>
  <polygon class="cls-12" points="2584.12 1358.2 2574.04 1327.24 2479.48 1358.2 2517.76 1475.56 2622.52 1475.56 2584.12 1358.2"/>
  <polygon class="cls-12" points="2220.16 1124.32 2208.4 1084.72 2199.28 1054.24 2096.92 1084.72 2109.88 1124.32 2117.68 1148.44 2128.48 1181.2 2141.44 1221.04 2147.2 1238.56 2200.72 1221.04 2197.36 1181.2 2217.04 1148.44 2220.16 1124.32"/>
  <polygon class="cls-12" points="1894.84 813.64 1889.92 811.36 1859.32 796.6 1824.16 811.36 1825.24 813.64 1873.84 929.8 1897.48 986.2 2032 929.8 1894.84 813.64"/>
  <polygon class="cls-12" points="2055.64 986.2 2032 929.8 1897.48 986.2 1938.76 1084.72 1962.28 1141.12 2096.92 1084.72 2055.64 986.2"/>
  <polygon class="cls-12" points="2115.28 1141.12 2096.92 1084.72 1962.28 1141.12 2003.2 1238.56 2018.44 1275.04 2025.52 1278.28 2035.48 1275.04 2147.2 1238.56 2115.28 1141.12"/>
  <polygon class="cls-12" points="1275.76 1340.08 1262.92 1309.6 1190.2 1340.08 1221.76 1415.44 1234.48 1445.92 1307.32 1415.44 1275.76 1340.08"/>
  <polygon class="cls-12" points="1353.4 1525.36 1320.04 1445.92 1307.32 1415.44 1234.48 1445.92 1231.12 1525.36 1240.72 1548.28 1243.36 1554.64 1273.36 1626.28 1355.44 1554.64 1363 1548.28 1353.4 1525.36"/>
  <polygon class="cls-12" points="1860.52 954.64 1846.24 920.68 1765.24 954.64 1793.8 1022.92 1796.68 1029.88 1810.12 1061.8 1886.2 1029.88 1889.08 1022.92 1860.52 954.64"/>
  <polygon class="cls-12" points="957.76 1257.4 944.92 1226.8 925.96 1181.44 817.72 1226.8 830.56 1257.4 910.72 1330 935.2 1352.08 988.12 1330 957.76 1257.4"/>
  <polygon class="cls-12" points="1083.28 1256.56 1064.44 1211.68 957.4 1256.56 969.28 1285.12 988.12 1330 1095.16 1285.12 1083.28 1256.56"/>
  <polygon class="cls-12" points="1051.72 1181.44 1035.04 1141.48 1028.08 1138.6 1021.36 1141.48 925.96 1181.44 938.56 1211.68 957.4 1256.56 1064.44 1211.68 1051.72 1181.44"/>
  <polygon class="cls-12" points="718.84 975.64 679.24 881.2 660.52 836.44 553.72 881.2 642.52 975.64 644.8 979.96 664.12 1015.6 720.64 979.96 718.84 975.64"/>
  <polygon class="cls-12" points="643.72 796.36 623.44 747.88 616.48 745 609.76 747.88 493.96 796.36 522.16 836.44 553.72 881.2 660.52 836.44 643.72 796.36"/>
  <polygon class="cls-12" points="996.04 564.28 996.04 564.28 996.04 564.28 971.08 504.52 828.52 564.28 828.52 564.28 828.52 564.28 828.52 564.28 828.52 564.28 829.36 566.32 830.32 568.72 831.52 571.48 852.76 622.36 974.08 571.48 974.08 571.48 981.28 568.72 988.6 566.32 996.04 564.28 996.04 564.28 996.04 564.28"/>
  <polygon class="cls-12" points="601.72 695.92 574.48 631 419.44 695.92 435.76 717.88 440.92 724.84 480.76 778.12 608.08 724.84 610.84 717.88 601.72 695.92"/>
  <polygon class="cls-12" points="563.68 605.2 558.4 592.6 551.2 586.24 457.96 560.68 396.76 586.24 381.76 592.6 351.64 605.2 351.64 605.2 370.84 631 419.44 695.92 574.48 631 563.68 605.2"/>
  <polygon class="cls-12" points="682.96 575.8 673.96 554.2 570.04 575.8 612.04 675.88 626.8 711.28 633.76 714.04 640.48 711.28 724.96 675.88 682.96 575.8"/>
  <polygon class="cls-12" points="812.2 580.48 785.2 554.2 771.04 540.52 758.2 536.8 740.08 540.52 673.96 554.2 685 580.48 705.88 630.52 724.96 675.88 833.2 630.52 812.2 580.48"/>
  <polygon class="cls-12" points="848.44 696.04 848.44 696.04 833.32 659.92 826.36 657.16 819.64 659.92 733.36 696.04 733.36 696.04 733.36 696.04 733.36 696.04 733.36 696.04 762.04 764.44 779.2 805.48 877.12 764.44 848.44 696.04"/>
  <polygon class="cls-12" points="752.32 741.16 749.32 734.32 733.36 696.04 642.16 734.32 639.4 741.16 666.28 805.48 683.08 845.68 779.2 805.48 752.32 741.16"/>
  <polygon class="cls-12" points="796 845.68 779.2 805.48 683.08 845.68 712.12 914.8 726.88 950.2 733.84 952.96 740.68 950.2 825.04 914.8 796 845.68"/>
  <polygon class="cls-12" points="894.28 805.48 877.12 764.44 779.2 805.48 805.72 868.96 808.72 875.92 825.04 914.8 918.04 875.92 920.8 868.96 894.28 805.48"/>
  <polygon class="cls-12" points="946.72 930.76 931.6 894.64 924.64 891.76 917.92 894.64 831.64 930.76 862 1003.12 879.16 1044.04 977.08 1003.12 946.72 930.76"/>
  <polygon class="cls-12" points="850.6 975.88 847.72 968.92 831.64 930.76 740.44 968.92 737.68 975.88 766.24 1044.04 783.04 1084.36 879.16 1044.04 850.6 975.88"/>
  <polygon class="cls-12" points="895.96 1084.36 879.16 1044.04 783.04 1084.36 813.76 1157.44 828.52 1192.72 835.48 1195.6 842.2 1192.72 926.68 1157.44 895.96 1084.36"/>
  <polygon class="cls-12" points="994.24 1044.04 977.08 1003.12 879.16 1044.04 907.36 1111.48 910.36 1118.44 926.68 1157.44 1019.68 1118.44 1022.44 1111.48 994.24 1044.04"/>
  <polygon class="cls-12" points="1712.92 721.84 1687.84 703.36 1643.8 721.84 1672.24 789.64 1691.92 836.8 1804.72 789.64 1712.92 721.84"/>
  <polygon class="cls-12" points="1657.24 753.88 1643.8 721.84 1567.36 753.88 1602.04 836.8 1613.44 863.92 1620.4 866.8 1627.12 863.92 1691.92 836.8 1657.24 753.88"/>
  <polygon class="cls-12" points="1586.68 661.72 1557.4 649.6 1528.72 661.72 1528.72 661.72 1528.72 661.72 1528.72 661.72 1528.72 661.72 1546.24 703.36 1567.36 753.88 1687.84 703.36 1586.68 661.72"/>
  <polygon class="cls-12" points="1527.28 702.88 1512.76 668.32 1430.44 702.88 1426.6 760.6 1423.12 814.36 1551.4 760.6 1527.28 702.88"/>
  <polygon class="cls-12" points="1573.96 814.36 1551.4 760.6 1423.12 814.36 1446.76 870.64 1449.64 877.6 1471.24 929.32 1594.72 877.6 1597.48 870.64 1573.96 814.36"/>
  <polygon class="cls-12" points="1439.56 853.6 1423.12 814.36 1329.4 853.6 1361.2 929.32 1377.64 968.56 1471.24 929.32 1439.56 853.6"/>
  <polygon class="cls-12" points="1173.76 575.56 1171 568.96 1097.2 575.56 1139.68 677.2 1151.2 704.44 1216.36 677.2 1173.76 575.56"/>
  <polygon class="cls-12" points="1100.56 583.72 1100.32 583.24 1100.2 582.76 1100.2 582.76 1097.2 575.56 1018.48 582.76 1018.48 582.76 1014.64 583.24 1010.68 583.72 1061.32 704.44 1074.64 736.48 1151.2 704.44 1100.56 583.72"/>
  <polygon class="cls-12" points="1035.52 643 1032.64 636.16 1014.04 591.76 1012.96 589.12 1012 586.84 1011.28 585.04 1010.68 583.72 1003.48 585.04 996.4 586.84 989.32 589.12 982.48 591.76 876.52 636.16 873.76 643 877 650.8 901.12 708.52 1038.76 650.8 1035.52 643"/>
  <polygon class="cls-12" points="1063 708.52 1038.76 650.8 901.12 708.52 912.88 736.48 937 794.2 1074.64 736.48 1063 708.52"/>
  <polygon class="cls-12" points="1098.88 794.2 1074.64 736.48 937 794.2 942.88 808.12 967 865.72 1104.64 808.12 1098.88 794.2"/>
  <polygon class="cls-12" points="1184.92 865.72 1167.52 824.32 1104.64 808.12 1066 824.32 967 865.72 972.88 879.88 1005.4 957.52 1190.8 879.88 1184.92 865.72"/>
  <polygon class="cls-12" points="1115.44 957.52 1099.12 918.28 1005.4 957.52 1048.48 1060.24 1062.88 1094.56 1069.84 1097.44 1076.56 1094.56 1158.52 1060.24 1115.44 957.52"/>
  <polygon class="cls-12" points="1207 918.28 1190.8 879.88 1099.12 918.28 1142.44 1021.84 1158.52 1060.24 1250.32 1021.84 1207 918.28"/>
  <polygon class="cls-12" points="1283.8 838.24 1278.04 824.32 1274.56 816.04 1254.88 824.32 1221.64 838.24 1167.52 824.32 1173.4 838.24 1233.88 982.48 1250.32 1021.84 1344.28 982.48 1283.8 838.24"/>
  <polygon class="cls-12" points="1227.88 1225.84 1211.44 1186.6 1117.84 1225.84 1146.28 1293.76 1160.68 1328.08 1167.64 1330.84 1174.36 1328.08 1256.32 1293.76 1227.88 1225.84"/>
  <polygon class="cls-12" points="1185.52 1124.56 1182.52 1117.6 1167.04 1080.52 1078.24 1117.6 1075.48 1124.56 1101.4 1186.6 1117.84 1225.84 1211.44 1186.6 1185.52 1124.56"/>
  <polygon class="cls-12" points="1274.92 1080.52 1258.72 1042 1167.04 1080.52 1195.36 1148.2 1211.44 1186.6 1303.24 1148.2 1274.92 1080.52"/>
  <polygon class="cls-12" points="1319.32 1186.6 1303.24 1148.2 1211.44 1186.6 1240.24 1255.24 1256.32 1293.76 1348.12 1255.24 1319.32 1186.6"/>
  <polygon class="cls-12" points="1413.28 1148.2 1396.84 1108.96 1303.24 1148.2 1329.64 1211.2 1332.52 1218.04 1348.12 1255.24 1436.8 1218.04 1439.68 1211.2 1413.28 1148.2"/>
  <polygon class="cls-12" points="1368.76 1042 1354.48 1007.68 1347.52 1004.92 1340.68 1007.68 1258.72 1042 1286.8 1108.96 1303.24 1148.2 1396.84 1108.96 1368.76 1042"/>
  <polygon class="cls-12" points="1489.48 991.84 1486.6 984.88 1472.92 952.36 1395.16 984.88 1392.4 991.84 1420.24 1058.44 1434.76 1093.12 1517.44 1058.44 1489.48 991.84"/>
  <polygon class="cls-12" points="1531.84 1093.12 1517.44 1058.44 1434.76 1093.12 1465.12 1165.6 1477.6 1195.24 1484.56 1198.12 1491.28 1195.24 1562.2 1165.6 1531.84 1093.12"/>
  <polygon class="cls-12" points="1614.52 1058.44 1600 1023.88 1517.44 1058.44 1547.8 1130.92 1562.2 1165.6 1644.88 1130.92 1614.52 1058.44"/>
  <polygon class="cls-12" points="1570 952.36 1555.48 917.68 1472.92 952.36 1502.92 1023.88 1517.44 1058.44 1600 1023.88 1570 952.36"/>
  <polygon class="cls-12" points="1652.68 917.68 1638.16 883.12 1555.48 917.68 1585.48 989.32 1600 1023.88 1682.56 989.32 1652.68 917.68"/>
  <polygon class="cls-12" points="1697.08 1023.88 1682.56 989.32 1600 1023.88 1630.36 1096.36 1644.88 1130.92 1727.44 1096.36 1697.08 1023.88"/>
  <polygon class="cls-12" points="1779.76 989.32 1765.24 954.64 1682.56 989.32 1712.92 1061.8 1727.44 1096.36 1810.12 1061.8 1779.76 989.32"/>
  <polygon class="cls-12" points="1735.24 883.12 1720.72 848.56 1638.16 883.12 1668.16 954.64 1682.56 989.32 1765.24 954.64 1735.24 883.12"/>
  <polygon class="cls-12" points="1815.23 849.33 1803.11 820.17 1796.15 817.41 1789.31 820.17 1719.95 849.33 1750.19 921.45 1764.47 955.41 1845.47 921.45 1815.23 849.33"/>
  <polygon class="cls-9" points="2924.8 1406.32 2918.08 1385.8 2855.32 1406.32 2877.88 1475.56 2947.36 1475.56 2924.8 1406.32"/>
  <polygon class="cls-9" points="2332.24 1388.08 2315.44 1337.08 2309.68 1319.44 2255.8 1337.08 2272.48 1388.08 2276.56 1400.68 2283.28 1404.16 2293.72 1400.68 2293.72 1400.68 2332.24 1388.08"/>
  <polygon class="cls-9" points="2379.52 1319.44 2372.8 1298.8 2309.68 1319.44 2325.4 1367.56 2332.24 1388.08 2395.24 1367.56 2379.52 1319.44"/>
  <polygon class="cls-9" points="2442.52 1298.8 2435.8 1278.16 2372.8 1298.8 2388.52 1346.92 2395.24 1367.56 2458.36 1346.92 2442.52 1298.8"/>
  <polygon class="cls-9" points="2505.64 1278.16 2498.92 1257.64 2435.8 1278.16 2451.52 1326.28 2458.36 1346.92 2521.36 1326.28 2505.64 1278.16"/>
  <polygon class="cls-9" points="2568.64 1257.64 2561.92 1237 2498.92 1257.64 2514.64 1305.76 2521.36 1326.28 2584.48 1305.76 2568.64 1257.64"/>
  <polygon class="cls-9" points="2631.76 1237 2625.04 1216.36 2561.92 1237 2577.64 1285.12 2584.48 1305.76 2647.48 1285.12 2631.76 1237"/>
  <polygon class="cls-9" points="2694.76 1216.36 2688.04 1195.84 2625.04 1216.36 2640.76 1264.48 2647.48 1285.12 2710.6 1264.48 2694.76 1216.36"/>
  <polygon class="cls-9" points="2757.88 1195.84 2751.16 1175.2 2688.04 1195.84 2702.2 1238.92 2704.36 1245.52 2710.6 1264.48 2768.56 1245.52 2771.92 1238.92 2757.88 1195.84"/>
  <path class="cls-9" d="M2288.68,1420.48l108.6,6.72h-112.08l3.48-6.72ZM2395.12,1420.48h-106.44l108.6,6.72-2.16-6.72Z"/>
  <polygon class="cls-9" points="2397.28 1427.2 2395.12 1420.48 2384.8 1389.04 2288.68 1420.48 2285.2 1427.2 2301.04 1475.56 2413.12 1475.56 2397.28 1427.2"/>
  <polygon class="cls-9" points="2288.32 1253.8 2286.16 1247.08 2280.88 1231.12 2231.92 1247.08 2228.56 1253.8 2250.04 1319.44 2255.8 1337.08 2309.68 1319.44 2288.32 1253.8"/>
  <polygon class="cls-9" points="2729.08 1107.52 2723.92 1091.92 2717.2 1088.56 2706.88 1091.92 2659.24 1107.52 2681.32 1175.2 2688.04 1195.84 2751.16 1175.2 2729.08 1107.52"/>
  <polygon class="cls-9" points="2665.96 1128.16 2659.24 1107.52 2596.24 1128.16 2618.32 1195.84 2625.04 1216.36 2688.04 1195.84 2665.96 1128.16"/>
  <polygon class="cls-9" points="2602.96 1148.68 2596.24 1128.16 2533.12 1148.68 2555.2 1216.36 2561.92 1237 2625.04 1216.36 2602.96 1148.68"/>
  <polygon class="cls-9" points="2539.84 1169.32 2533.12 1148.68 2470.12 1169.32 2492.2 1237 2498.92 1257.64 2561.92 1237 2539.84 1169.32"/>
  <polygon class="cls-9" points="2476.84 1189.96 2470.12 1169.32 2407 1189.96 2429.08 1257.64 2435.8 1278.16 2498.92 1257.64 2476.84 1189.96"/>
  <polygon class="cls-9" points="2413.72 1210.48 2407 1189.96 2344 1210.48 2366.08 1278.16 2372.8 1298.8 2435.8 1278.16 2413.72 1210.48"/>
  <polygon class="cls-9" points="2350.72 1231.12 2344 1210.48 2280.88 1231.12 2302.96 1298.8 2309.68 1319.44 2372.8 1298.8 2350.72 1231.12"/>
  <path class="cls-19" d="M990.07,2165.22c-20.59-43.87-43.06-92.09-71.41-132.64-21.76-30.81-45.45-63.34-53.2-101.1-7.22-30.48-13.27-65.2-21.68-95.9-11.59-30.38-16.26-61.86-23.19-95.45-4.24-17.73-2.34-36.77-2.86-54.53-.06-22.54-3.62-46.89-3.96-69.91,1.43-30.29,6.17-61.88,9.34-93.22,1.05-9.58,2-15.92,1.16-25.49-1.73-15.02-3.57-30.8-5.42-45.69-2.8-15.59-7.55-30.48-13.48-45.36-9.46-25.98-27.87-50.11-39.73-75.24-4.04-9.41-7.08-21.69-10.26-31.69-2.92-9.65-8.84-20.03-13.51-29.67-7.91-16.76-17-32.15-26.73-47.85-14.37-22.55-31.15-44.39-48.76-64.61-11.25-12.76-25.01-25.44-36.61-37.86-9.1-8.57-20.43-16.89-29.96-24.83-16.58-14.31-35.37-37.48-50.05-52.72-31.34-33.86-58.14-76.79-84.47-114.62-9.63-14.86-14.89-34.46-23.64-49.9-6.36-10.76-15.9-19.98-23.53-29.32-11.71-14.05-24.32-30.95-36.49-44.56-12.82-13.48-30.05-24.64-42.4-38.94-17.79-17.78-31.85-37.49-49.85-55.2-19.89-21.11-42.83-39.29-64.48-58.84-12.4-13.61-24.17-27.49-34.8-42.27-11.49-16.67-24.24-32.86-37.04-48.23-12.05-14.35-19.97-29.78-28.33-46.63-6.67-14.87-21.29-29.96-19.29-46.43,4.4-12.47,18.05-2.11,22.69,6.04,16.58,28.69,45.29,29.2,69.98,10.3,4.93-4.15,13.45-8.42,14.97-14.57-.04-.13-.12-.24-.23-.32-1.22-.96-9.34,3.44-11.9,6.11-13.13,12.32-31.82,23.28-49.83,14.88-12.89-4.85-17.5-19.51-26.72-28.69-7.57-7.18-19.02-8.79-25.01-17.81-13.23-22.07-27.27-45.32-37.42-68.86-4.1-9.17-6.35-19.23-9.46-28.89-4.63-13.21-12.11-27.79-18.23-40.06-2.52-4.62-5.08-8.58-7.13-11.46-2.19-3.05-3.88-5.1-4.25-4.82-.73,33.02.08,433.65-.21,459,39.92,68.9,155.93,249.19,171.61,275.95,25.85,35.37,85.71,115.38,101.96,137.67,6.49,11.7,11.47,27.38,17.2,40.36,2.54,7.71,9.15,19.22,9.23,26.09,5.35,100.78,14.1,309.57,25.76,428.94.79,7.74.39,11.02,1.98,17.16,6.35,20.89,23.33,71.8,31.94,99.2,33.24,89.11,80.27,184.71,127.5,283.12,20.74,36.57,82.05,134.75,113.32,187.37,5.74,9.9,11.08,22.65,16.18,33.58,1.03,2.24,1.94,4.21,2.71,5.81,1.81,3.76,2.79,5.36,3.73,5.69,28.17-10.16,315.55-108.99,344.26-123.03v-.05Z"/>
  <polyline class="cls-19" points="1063.24 2346.76 1064.68 2346.76 672.16 2347.72 650.56 2300.44 998.2 2181.4 1030.48 2252.92 1039.36 2275.12 1046.92 2308.96 1053.16 2325.4 1063.6 2342.92 1064.92 2347.72"/>
  <text class="cls-4" transform="translate(708.47 2188.64) rotate(-19.05)"><tspan x="0" y="0">HOA BINH </tspan><tspan x="8.61" y="33.36">BRIDGE 7</tspan></text>
  <text class="cls-5" transform="translate(503.25 1319.19) rotate(73.74)"><tspan x="0" y="0">DA RIVER</tspan></text>
  <text class="cls-2" transform="translate(530.32 2344.48)"><tspan x="0" y="0">ĐI PHÚ THỌ</tspan></text>
  <path class="cls-19" d="M1567.12,1448.02c0-3.28-2.66-5.94-5.94-5.94s-5.94,2.66-5.94,5.94,2.66,5.94,5.94,5.94,5.94-2.66,5.94-5.94"/>
  <polyline class="cls-19" points="2412.88 1003.96 2456.44 1137.52 2461.48 1135.84 2418.4 1003.84"/>
  <path class="cls-19" d="M3041.4,843.06c.66,13.74-7.94,26.23-21.02,30.51l.06.07-99.6,32.52,23.52,71.88,5.04-1.56-21.84-66.84,94.56-30.96-.1-.09c15.34-5.01,25.44-19.66,24.66-35.78"/>
  <polygon class="cls-23" points="1791.28 1391.08 1831.48 1514.32 1790.56 1527.76 1771.6 1469.92 1643.8 1461.16 1637.32 1441.36 1791.28 1391.08"/>
  <path class="cls-13" d="M1149.42,1330.52c2.27,5.41-.28,11.63-5.69,13.9-5.41,2.27-11.63-.28-13.9-5.69l.02.04-83.64-199.8v-.04c-2.28-5.41.27-11.63,5.68-13.9,5.41-2.27,11.63.28,13.9,5.69l-.02.08,83.76,199.8"/>
  <polyline class="cls-19" points="2753.56 896.56 2754.88 900.4 2794.36 893.08 2833.84 1014.16 2828.8 1015.84 2790.76 899.2 2751.28 906.4 2748.28 897.52"/>
  <polygon class="cls-16" points="1150.47 1601.38 1175.33 1589.48 1150.44 1601.32 1150.47 1601.38"/>
  <polygon class="cls-23" points="1175.33 1589.48 1150.47 1601.38 1150.44 1601.32 1150.38 1601.35 1150.36 1601.44 1135.5 1570.22 1093.68 1590.1 1161.72 1721.26 1211.04 1680.94 1212 1676.74 1175.33 1589.48"/>
  <polygon class="cls-22" points="1150.38 1601.35 1150.44 1601.32 1175.33 1589.48 1124.12 1466.93 1123.2 1421.05 1111.6 1373.11 1129 1365.76 1095.16 1285.12 1015.76 1318.6 1135.5 1570.22 1150.36 1601.44 1150.38 1601.35"/>
  <path class="cls-19" d="M1009.36,561.76l-21.96-52.56-.07-.02c-2.83-6.75-10.6-9.94-17.35-7.11l.02.05-145.8,61.08-.06-.16c-11.01,4.61-23.72,2.21-32.29-6.11l.07.14-17.88-17.4-.15-.03c-4.72-4.59-11.41-6.53-17.86-5.2l.13.07-172.08,35.64-.03-.11c-6.57,1.36-13.39,1.04-19.8-.94l.03.09-144.48-39.72h-.08c-4.28-1.19-8.84-.89-12.93.82l.05.02-27.6,11.52-.07-.1c-4.25,1.78-8.99,2.03-13.4.7l.15.12-25.44-7.68-.03-.06c-2.03-.61-3.81-1.86-5.08-3.55l-.05.14-36.84-49.32-.05.02c-1.45-1.94-3.56-3.28-5.93-3.77l.1-.08-31.32-6.36-5.52-3.36-6.72-7.8,6.12-5.16,4.92,5.76,5.52,3.24,61.68,12.72-.1.08c3.02.62,5.58,2.62,6.92,5.4s1.3,6.02-.09,8.77l.11.02-2.04,3.96v-.1c-.91,1.78-1.25,3.78-1,5.75l.04.1,1.44,10.92-.04-.1c.22,1.69.87,3.29,1.89,4.65l.07.14,5.64,7.68.05-.14c1.27,1.7,3.05,2.94,5.08,3.55l.03.06,20.16,6.12-.03-.12c4.41,1.33,9.15,1.08,13.4-.7l.07.1,27.12-11.4-.05-.02c3.37-1.41,7.06-1.87,10.67-1.32h.07s21.24,3.37,21.24,3.37l.04-.13c2.39.39,4.84-.12,6.89-1.41l.04.1,11.4-7.2-.08-.02c4.22-2.68,9.78-1.79,12.95,2.07h.09s8.76,14.15,8.76,14.15h.04c1.26,2.03,3.21,3.53,5.5,4.24l-.02.08,9.6,3-.1-.2c2.99.92,6.23.38,8.76-1.46l.1.1,11.4-8.28-.02-.02c2.13-1.55,4.78-2.19,7.39-1.78,2.6.41,4.93,1.84,6.47,3.98l.08.1,1.08,1.44,16.2,20.16.04-.08c1.24,1.53,2.9,2.66,4.78,3.24l-.02.08,15.36,4.8-.03-.09c6.42,1.98,13.23,2.3,19.8.94h.03s65.76-13.57,65.76-13.57l.03-.09c4.33-.9,7.54-4.56,7.87-8.98l.03.06.84-10.92.03-.06c.24-3.34,2.16-6.34,5.1-7.96,2.94-1.62,6.5-1.64,9.45-.05l.06.02,27.96,15-.06-.22c2.05,1.1,4.41,1.44,6.69.97l.09.21,50.4-10.44-.13-.07c6.45-1.34,13.14.61,17.86,5.2l.15.03,17.16,16.68-.07-.14c8.57,8.32,21.28,10.72,32.29,6.11l.06.16,153.48-64.32.06-.08c7.97-3.34,16.99-3.06,24.73.77l.05.03,86.28,42.6-.1-.02c2.57,1.27,5.39,1.97,8.26,2.05h.12s45.96,1.33,45.96,1.33l-.12-.13c3.67.1,7.3-.82,10.48-2.66l.09.14,18.48-10.68h-.03c1.45-.83,2.42-2.29,2.63-3.95h.04s.84-7.09.84-7.09h-.08c.37-2.91,2.99-4.97,5.89-4.65l.06.09,16.56,1.8-.06-.09c1.97.22,3.66,1.52,4.38,3.37v.08s11.88,30.36,11.88,30.36"/>
  <polyline class="cls-19" points="1177.96 568.24 1228.48 688.84 1174.36 711.52 1163.2 713.44 1153.6 715.72 1144.84 718.96 1135.96 722.32 1128.16 726.52 1123.96 729.76 1119.88 734.2 1115.32 740.08 1111.24 747.4 1109.92 751.48 1108.84 758.2 1107.52 765.04 1105.84 774.04 1105.36 779.56 1105.72 781.6 1106.8 786.28 1108.72 791.44 1111.24 794.56 1114.48 797.68 1118.32 800.2 1121.08 800.8 1131.28 800.92 1138.36 799.12 1147.48 796.48 1152.04 793.6 1157.56 790.96 1160.8 790.96 1165.24 788.32 1171.12 785.56 1174.36 784.84 1180.12 786.04 1185.64 787.72 1193.8 792.28 1195.72 795.04 1199.08 801.28 1200.52 805.36 1202.08 811.48 1204.36 816.4 1208.68 821.2 1212.52 824.92 1216.84 826.36 1222.48 826.6 1230.04 823.72 1238.2 817.72 1244.08 812.32 1249.6 807.52 1255.36 803.8 1260.64 800.44 1266.76 795.88 1272.28 793.48 1350.4 979.96 1367.56 972.76 1197.28 566.56"/>
  <path class="cls-19" d="M2005.58,1309.07c1.58-.52,2.87-1.67,3.56-3.17s.72-3.24.08-4.77c-1.2-2.85-4.38-4.31-7.32-3.35l-.02.07-420.36,137.4-.1-.07c-1.58.52-2.87,1.67-3.56,3.17-.69,1.51-.72,3.24-.08,4.77,1.2,2.85,4.38,4.31,7.32,3.35l.14.05,420.36-137.28"/>
  <path class="cls-19" d="M2744.69,1055.13c-3.12,1.02-4.82,4.37-3.8,7.49s4.37,4.82,7.49,3.8l.02.05,209.88-68.52-.02-.05c3.12-1.02,4.82-4.37,3.8-7.49-1.02-3.12-4.37-4.82-7.49-3.8l-.02-.05-209.88,68.64.02-.07Z"/>
  <path class="cls-19" d="M2714.9,1077.35c3.12-1.02,4.82-4.37,3.8-7.49-1.02-3.12-4.37-4.82-7.49-3.8l.1.07-487.8,159.36-.1-.07c-3.12,1.02-4.82,4.37-3.8,7.49,1.02,3.12,4.37,4.82,7.49,3.8l.14.05,487.8-159.36"/>
  <path class="cls-19" d="M2205.74,1243.67c3.12-1.02,4.82-4.37,3.8-7.49-1.02-3.12-4.37-4.82-7.49-3.8l-.02.07-174.24,56.88.02.05c-1.58.52-2.87,1.67-3.56,3.17s-.72,3.24-.08,4.77c1.2,2.85,4.38,4.31,7.32,3.35l.02.05,174.24-56.88"/>
  <path class="cls-19" d="M1365.04,1003.89c-1.98-4.74.25-10.19,4.98-12.17,4.74-1.98,10.19.25,12.17,4.98v.05s84.24,201,84.24,201v-.05c1.98,4.74-.25,10.19-4.99,12.17s-10.19-.25-12.17-4.98v.07s-84.24-201-84.24-201"/>
  <path class="cls-19" d="M1461.64,1234.36l81.96,195.84v-.07c1.99,4.74,7.44,6.97,12.17,4.98s6.97-7.43,4.98-12.17v.05s-82.08-195.84-82.08-195.84v-.05c-1.99-4.74-7.44-6.97-12.17-4.98-4.74,1.98-6.97,7.43-4.98,12.17"/>
  <path class="cls-13" d="M1219.6,1703.78c2.47-2.16,2.73-5.91.57-8.38-2.16-2.47-5.91-2.73-8.38-.57v.1s-6.84,6-6.84,6l-.14-.07c-3.65,3.18-7.38,6.27-11.19,9.27l.06.04-33.72,26.52v-.05c-2.59,2.03-3.04,5.76-1.01,8.34,2.03,2.58,5.76,3.03,8.34,1l.11.07,33.72-26.52-.16-.06c3.97-3.12,7.86-6.34,11.67-9.66l6.98-6.03Z"/>
  <path class="cls-13" d="M1238.56,1687.22c-2.47,2.16-6.22,1.9-8.38-.57-2.16-2.47-1.9-6.22.57-8.38v.1s132.12-115.2,132.12-115.2l-.04-.07c20.41-17.8,42.56-33.51,66.11-46.88l.04.15,109.56-62.28-.11.05c1.48-.84,3.24-1,4.85-.46s2.9,1.76,3.56,3.33c1.16,2.77.07,5.98-2.55,7.46l.13.05-109.56,62.16-.06-.13c-22.86,12.98-44.36,28.22-64.17,45.5l.03.12-132,115.2"/>
  <path class="cls-13" d="M949.49,853.28c2.27,5.41-.28,11.63-5.69,13.9-5.41,2.27-11.63-.28-13.9-5.69l.02.04-85.44-204.12-.02-.04c-2.27-5.41.28-11.63,5.69-13.9,5.41-2.27,11.63.28,13.9,5.69l-.02.08,85.56,204"/>
  <path class="cls-13" d="M1032.16,1105.36l-88.92-212.04-.02-.04c-2.27-5.41.28-11.63,5.69-13.9,5.41-2.27,11.63.28,13.9,5.69l.1.08,88.8,211.92-.1.04c2.27,5.41-.28,11.63-5.69,13.9-5.41,2.27-11.63-.28-13.9-5.69"/>
  <text class="cls-2" transform="translate(1680.4 1608.52)"><tspan x="0" y="0">HỒ HẢI CAO</tspan></text>
  <text class="cls-7" transform="translate(2260.72 1280.92) scale(1 1.43)"><tspan x="0" y="0">D-01</tspan></text>
  <text class="cls-6" transform="translate(2263 1293.16) scale(1 1.43)"><tspan x="0" y="0">1,19</tspan></text>
  <text class="cls-7" transform="translate(2318.44 1261.72) scale(1 1.43)"><tspan x="0" y="0">D-02</tspan></text>
  <text class="cls-6" transform="translate(2320.72 1274.08) scale(1 1.43)"><tspan x="0" y="0">1,40</tspan></text>
  <text class="cls-7" transform="translate(2381.44 1241.2) scale(1 1.43)"><tspan x="0" y="0">D-03</tspan></text>
  <text class="cls-6" transform="translate(2383.72 1253.44) scale(1 1.43)"><tspan x="0" y="0">1,40</tspan></text>
  <text class="cls-7" transform="translate(2444.56 1220.56) scale(1 1.43)"><tspan x="0" y="0">D-04</tspan></text>
  <text class="cls-6" transform="translate(2446.84 1232.8) scale(1 1.43)"><tspan x="0" y="0">1,40</tspan></text>
  <text class="cls-7" transform="translate(2507.56 1199.92) scale(1 1.43)"><tspan x="0" y="0">D-05</tspan></text>
  <text class="cls-6" transform="translate(2509.84 1212.28) scale(1 1.43)"><tspan x="0" y="0">1,40</tspan></text>
  <text class="cls-7" transform="translate(2570.68 1179.28) scale(1 1.43)"><tspan x="0" y="0">D-06</tspan></text>
  <text class="cls-6" transform="translate(2572.96 1191.64) scale(1 1.43)"><tspan x="0" y="0">1,40</tspan></text>
  <text class="cls-7" transform="translate(2633.68 1158.76) scale(1 1.43)"><tspan x="0" y="0">D-07</tspan></text>
  <text class="cls-6" transform="translate(2635.96 1171) scale(1 1.43)"><tspan x="0" y="0">1,40</tspan></text>
  <text class="cls-7" transform="translate(2696.8 1138.96) scale(1 1.43)"><tspan x="0" y="0">D-08</tspan></text>
  <text class="cls-6" transform="translate(2699.08 1151.32) scale(1 1.43)"><tspan x="0" y="0">1,40</tspan></text>
  <text class="cls-7" transform="translate(2721.64 1216.6) scale(1 1.43)"><tspan x="0" y="0">D-09</tspan></text>
  <text class="cls-6" transform="translate(2723.92 1228.96) scale(1 1.43)"><tspan x="0" y="0">1,09</tspan></text>
  <text class="cls-7" transform="translate(2659.36 1237.24) scale(1 1.43)"><tspan x="0" y="0">D-10</tspan></text>
  <text class="cls-6" transform="translate(2661.64 1249.6) scale(1 1.43)"><tspan x="0" y="0">1,09</tspan></text>
  <text class="cls-7" transform="translate(2596.36 1257.88) scale(1 1.43)"><tspan x="0" y="0">D-11</tspan></text>
  <text class="cls-6" transform="translate(2598.64 1270.12) scale(1 1.43)"><tspan x="0" y="0">1,09</tspan></text>
  <text class="cls-7" transform="translate(2533.24 1278.4) scale(1 1.43)"><tspan x="0" y="0">D-12</tspan></text>
  <text class="cls-6" transform="translate(2535.52 1290.76) scale(1 1.43)"><tspan x="0" y="0">1,09</tspan></text>
  <text class="cls-7" transform="translate(2470.24 1299.04) scale(1 1.43)"><tspan x="0" y="0">D-13</tspan></text>
  <text class="cls-6" transform="translate(2472.52 1311.4) scale(1 1.43)"><tspan x="0" y="0">1,09</tspan></text>
  <text class="cls-7" transform="translate(2407.12 1319.68) scale(1 1.43)"><tspan x="0" y="0">D-14</tspan></text>
  <text class="cls-6" transform="translate(2409.4 1331.92) scale(1 1.43)"><tspan x="0" y="0">1,09</tspan></text>
  <text class="cls-7" transform="translate(2344.12 1340.2) scale(1 1.43)"><tspan x="0" y="0">D-15</tspan></text>
  <text class="cls-6" transform="translate(2346.4 1352.56) scale(1 1.43)"><tspan x="0" y="0">1,09</tspan></text>
  <text class="cls-7" transform="translate(2285.56 1358.56) scale(1 1.43)"><tspan x="0" y="0">D-16</tspan></text>
  <text class="cls-6" transform="translate(2287.84 1370.8) scale(1 1.43)"><tspan x="0" y="0">0,93</tspan></text>
  <text class="cls-7" transform="translate(2338.24 1434.4) scale(1 1.43)"><tspan x="0" y="0">D-17</tspan></text>
  <text class="cls-6" transform="translate(2340.52 1446.64) scale(1 1.43)"><tspan x="0" y="0">1,78</tspan></text>
  <text class="cls-7" transform="translate(2725.72 1307.44) scale(1 1.43)"><tspan x="0" y="0">D-18</tspan></text>
  <text class="cls-6" transform="translate(2728 1319.8) scale(1 1.43)"><tspan x="0" y="0">1,75</tspan></text>
  <text class="cls-7" transform="translate(2746.24 1369.72) scale(1 1.43)"><tspan x="0" y="0">D-19</tspan></text>
  <text class="cls-6" transform="translate(2748.52 1382.08) scale(1 1.43)"><tspan x="0" y="0">1,75</tspan></text>
  <text class="cls-7" transform="translate(2771.2 1427.8) scale(1 1.43)"><tspan x="0" y="0">D-20</tspan></text>
  <text class="cls-6" transform="translate(2773.48 1440.16) scale(1 1.43)"><tspan x="0" y="0">1,97</tspan></text>
  <text class="cls-7" transform="translate(2892.88 1427.56) scale(1 1.43)"><tspan x="0" y="0">D-21</tspan></text>
  <text class="cls-6" transform="translate(2895.16 1439.8) scale(1 1.43)"><tspan x="0" y="0">1,25</tspan></text>
  <text class="cls-7" transform="translate(454.6 625.12) scale(1 1.43)"><tspan x="0" y="0">C-01</tspan></text>
  <text class="cls-6" transform="translate(456.88 637.36) scale(1 1.43)"><tspan x="0" y="0">3,97</tspan></text>
  <text class="cls-7" transform="translate(506.8 701.32) scale(1 1.43)"><tspan x="0" y="0">C-02</tspan></text>
  <text class="cls-6" transform="translate(508.96 713.68) scale(1 1.43)"><tspan x="0" y="0">3,52</tspan></text>
  <text class="cls-7" transform="translate(639.04 630.88) scale(1 1.43)"><tspan x="0" y="0">C-03</tspan></text>
  <text class="cls-6" transform="translate(641.32 643.24) scale(1 1.43)"><tspan x="0" y="0">3,36</tspan></text>
  <text class="cls-7" transform="translate(745.12 603.16) scale(1 1.43)"><tspan x="0" y="0">C-04</tspan></text>
  <text class="cls-6" transform="translate(747.4 615.4) scale(1 1.43)"><tspan x="0" y="0">3,05</tspan></text>
  <text class="cls-7" transform="translate(903.88 560.2) scale(1 1.43)"><tspan x="0" y="0">C-05</tspan></text>
  <text class="cls-6" transform="translate(906.16 572.56) scale(1 1.43)"><tspan x="0" y="0">2,21</tspan></text>
  <text class="cls-7" transform="translate(568.84 809.92) scale(1 1.43)"><tspan x="0" y="0">C-06</tspan></text>
  <text class="cls-6" transform="translate(571.12 822.16) scale(1 1.43)"><tspan x="0" y="0">2,92</tspan></text>
  <text class="cls-7" transform="translate(628.72 922.84) scale(1 1.43)"><tspan x="0" y="0">C-07</tspan></text>
  <text class="cls-6" transform="translate(631 935.2) scale(1 1.43)"><tspan x="0" y="0">3,19</tspan></text>
  <text class="cls-7" transform="translate(700.84 767.68) scale(1 1.43)"><tspan x="0" y="0">C-08</tspan></text>
  <text class="cls-6" transform="translate(703.12 779.92) scale(1 1.43)"><tspan x="0" y="0">2,80</tspan></text>
  <text class="cls-7" transform="translate(796.84 728.08) scale(1 1.43)"><tspan x="0" y="0">C-09</tspan></text>
  <text class="cls-6" transform="translate(799.12 740.32) scale(1 1.43)"><tspan x="0" y="0">2,86</tspan></text>
  <text class="cls-7" transform="translate(841.6 836.44) scale(1 1.43)"><tspan x="0" y="0">C-10</tspan></text>
  <text class="cls-6" transform="translate(843.88 848.68) scale(1 1.43)"><tspan x="0" y="0">2,86</tspan></text>
  <text class="cls-7" transform="translate(745.6 876.04) scale(1 1.43)"><tspan x="0" y="0">C-11</tspan></text>
  <text class="cls-6" transform="translate(747.88 888.28) scale(1 1.43)"><tspan x="0" y="0">2,80</tspan></text>
  <text class="cls-7" transform="translate(799.96 1004.32) scale(1 1.43)"><tspan x="0" y="0">C-12</tspan></text>
  <text class="cls-6" transform="translate(802.24 1016.56) scale(1 1.43)"><tspan x="0" y="0">2,91</tspan></text>
  <text class="cls-7" transform="translate(895.96 964.72) scale(1 1.43)"><tspan x="0" y="0">C-13</tspan></text>
  <text class="cls-6" transform="translate(898.24 976.96) scale(1 1.43)"><tspan x="0" y="0">2,96</tspan></text>
  <text class="cls-7" transform="translate(942.4 1077.04) scale(1 1.43)"><tspan x="0" y="0">C-14</tspan></text>
  <text class="cls-6" transform="translate(944.68 1089.28) scale(1 1.43)"><tspan x="0" y="0">2,96</tspan></text>
  <text class="cls-7" transform="translate(846.4 1116.64) scale(1 1.43)"><tspan x="0" y="0">C-15</tspan></text>
  <text class="cls-6" transform="translate(848.68 1128.88) scale(1 1.43)"><tspan x="0" y="0">2,91</tspan></text>
  <text class="cls-7" transform="translate(1148.32 633.52) scale(1 1.43)"><tspan x="0" y="0">C-16</tspan></text>
  <text class="cls-6" transform="translate(1150.6 645.76) scale(1 1.43)"><tspan x="0" y="0">2,06</tspan></text>
  <text class="cls-7" transform="translate(1072.48 652.84) scale(1 1.43)"><tspan x="0" y="0">C-17</tspan></text>
  <text class="cls-6" transform="translate(1074.76 665.2) scale(1 1.43)"><tspan x="0" y="0">2,88</tspan></text>
  <text class="cls-7" transform="translate(947.8 642.88) scale(1 1.43)"><tspan x="0" y="0">C-18</tspan></text>
  <text class="cls-6" transform="translate(950.08 655.24) scale(1 1.43)"><tspan x="0" y="0">2,58</tspan></text>
  <text class="cls-7" transform="translate(979.48 719.32) scale(1 1.43)"><tspan x="0" y="0">C-19</tspan></text>
  <text class="cls-6" transform="translate(981.76 731.56) scale(1 1.43)"><tspan x="0" y="0">3,15</tspan></text>
  <text class="cls-7" transform="translate(1012.48 797.92) scale(1 1.43)"><tspan x="0" y="0">C-20</tspan></text>
  <text class="cls-6" transform="translate(1014.76 810.28) scale(1 1.43)"><tspan x="0" y="0">2,63</tspan></text>
  <text class="cls-7" transform="translate(1070.56 879.64) scale(1 1.43)"><tspan x="0" y="0">C-21</tspan></text>
  <text class="cls-6" transform="translate(1072.84 891.88) scale(1 1.43)"><tspan x="0" y="0">4,31</tspan></text>
  <text class="cls-7" transform="translate(1073.56 1004.68) scale(1 1.43)"><tspan x="0" y="0">C-22</tspan></text>
  <text class="cls-6" transform="translate(1075.84 1017.04) scale(1 1.43)"><tspan x="0" y="0">3,55</tspan></text>
  <text class="cls-7" transform="translate(1166.32 966.88) scale(1 1.43)"><tspan x="0" y="0">C-23</tspan></text>
  <text class="cls-6" transform="translate(1168.6 979.12) scale(1 1.43)"><tspan x="0" y="0">3,48</tspan></text>
  <text class="cls-7" transform="translate(1247.56 915.76) scale(1 1.43)"><tspan x="0" y="0">C-24</tspan></text>
  <text class="cls-6" transform="translate(1249.84 928) scale(1 1.43)"><tspan x="0" y="0">4,35</tspan></text>
  <text class="cls-7" transform="translate(1478.92 738.16) scale(1 1.43)"><tspan x="0" y="0">C-25</tspan></text>
  <text class="cls-6" transform="translate(1481.2 750.4) scale(1 1.43)"><tspan x="0" y="0">2,59</tspan></text>
  <text class="cls-7" transform="translate(1391.92 888.16) scale(1 1.43)"><tspan x="0" y="0">C-26</tspan></text>
  <text class="cls-6" transform="translate(1394.2 900.52) scale(1 1.43)"><tspan x="0" y="0">2,88</tspan></text>
  <text class="cls-7" transform="translate(1501.96 841.72) scale(1 1.43)"><tspan x="0" y="0">C-27</tspan></text>
  <text class="cls-6" transform="translate(1504.24 854.08) scale(1 1.43)"><tspan x="0" y="0">3,94</tspan></text>
  <text class="cls-7" transform="translate(1599.88 698.56) scale(1 1.43)"><tspan x="0" y="0">C-28</tspan></text>
  <text class="cls-6" transform="translate(1602.16 710.92) scale(1 1.43)"><tspan x="0" y="0">1,84</tspan></text>
  <text class="cls-7" transform="translate(1621.24 791.08) scale(1 1.43)"><tspan x="0" y="0">C-29</tspan></text>
  <text class="cls-6" transform="translate(1623.52 803.44) scale(1 1.43)"><tspan x="0" y="0">2,35</tspan></text>
  <text class="cls-7" transform="translate(1715.92 766.96) scale(1 1.43)"><tspan x="0" y="0">C-30</tspan></text>
  <text class="cls-6" transform="translate(1718.2 779.2) scale(1 1.43)"><tspan x="0" y="0">2,41</tspan></text>
  <text class="cls-7" transform="translate(894.52 1263.52) scale(1 1.43)"><tspan x="0" y="0">C-31</tspan></text>
  <text class="cls-6" transform="translate(896.8 1275.88) scale(1 1.43)"><tspan x="0" y="0">3,42</tspan></text>
  <text class="cls-7" transform="translate(986.8 1194.4) scale(1 1.43)"><tspan x="0" y="0">C-32</tspan></text>
  <text class="cls-6" transform="translate(989.08 1206.64) scale(1 1.43)"><tspan x="0" y="0">2,14</tspan></text>
  <text class="cls-7" transform="translate(1017.88 1267.6) scale(1 1.43)"><tspan x="0" y="0">C-33</tspan></text>
  <text class="cls-6" transform="translate(1020.16 1279.96) scale(1 1.43)"><tspan x="0" y="0">2,10</tspan></text>
  <text class="cls-7" transform="translate(1135 1150) scale(1 1.43)"><tspan x="0" y="0">C-34</tspan></text>
  <text class="cls-6" transform="translate(1137.28 1162.24) scale(1 1.43)"><tspan x="0" y="0">2,65</tspan></text>
  <text class="cls-7" transform="translate(1226.68 1111.12) scale(1 1.43)"><tspan x="0" y="0">C-35</tspan></text>
  <text class="cls-6" transform="translate(1228.96 1123.48) scale(1 1.43)"><tspan x="0" y="0">2,60</tspan></text>
  <text class="cls-7" transform="translate(1319.44 1073.32) scale(1 1.43)"><tspan x="0" y="0">C-36</tspan></text>
  <text class="cls-6" transform="translate(1321.72 1085.68) scale(1 1.43)"><tspan x="0" y="0">2,65</tspan></text>
  <text class="cls-7" transform="translate(1363 1178.92) scale(1 1.43)"><tspan x="0" y="0">C-37</tspan></text>
  <text class="cls-6" transform="translate(1365.28 1191.16) scale(1 1.43)"><tspan x="0" y="0">2,67</tspan></text>
  <text class="cls-7" transform="translate(1271.32 1217.68) scale(1 1.43)"><tspan x="0" y="0">C-38</tspan></text>
  <text class="cls-6" transform="translate(1273.6 1230.04) scale(1 1.43)"><tspan x="0" y="0">2,63</tspan></text>
  <text class="cls-7" transform="translate(1178.68 1255.48) scale(1 1.43)"><tspan x="0" y="0">C-39</tspan></text>
  <text class="cls-6" transform="translate(1180.96 1267.84) scale(1 1.43)"><tspan x="0" y="0">2,67</tspan></text>
  <text class="cls-7" transform="translate(1446.52 1019.44) scale(1 1.43)"><tspan x="0" y="0">C-40</tspan></text>
  <text class="cls-6" transform="translate(1448.8 1031.8) scale(1 1.43)"><tspan x="0" y="0">2,34</tspan></text>
  <text class="cls-7" transform="translate(1528.12 984.88) scale(1 1.43)"><tspan x="0" y="0">C-41</tspan></text>
  <text class="cls-6" transform="translate(1530.28 997.24) scale(1 1.43)"><tspan x="0" y="0">2,34</tspan></text>
  <text class="cls-7" transform="translate(1610.68 950.32) scale(1 1.43)"><tspan x="0" y="0">C-42</tspan></text>
  <text class="cls-6" transform="translate(1612.96 962.56) scale(1 1.43)"><tspan x="0" y="0">2,34</tspan></text>
  <text class="cls-7" transform="translate(1693.24 915.64) scale(1 1.43)"><tspan x="0" y="0">C-43</tspan></text>
  <text class="cls-6" transform="translate(1695.52 928) scale(1 1.43)"><tspan x="0" y="0">2,34</tspan></text>
  <text class="cls-7" transform="translate(1775.08 882.4) scale(1 1.43)"><tspan x="0" y="0">C-44</tspan></text>
  <text class="cls-6" transform="translate(1777.36 894.76) scale(1 1.43)"><tspan x="0" y="0">2,30</tspan></text>
  <text class="cls-7" transform="translate(1818.76 988) scale(1 1.43)"><tspan x="0" y="0">C-45</tspan></text>
  <text class="cls-6" transform="translate(1821.04 1000.36) scale(1 1.43)"><tspan x="0" y="0">2,32</tspan></text>
  <text class="cls-7" transform="translate(1737.88 1022.32) scale(1 1.43)"><tspan x="0" y="0">C-46</tspan></text>
  <text class="cls-6" transform="translate(1740.16 1034.56) scale(1 1.43)"><tspan x="0" y="0">2,36</tspan></text>
  <text class="cls-7" transform="translate(1655.32 1056.88) scale(1 1.43)"><tspan x="0" y="0">C-47</tspan></text>
  <text class="cls-6" transform="translate(1657.6 1069.24) scale(1 1.43)"><tspan x="0" y="0">2,36</tspan></text>
  <text class="cls-7" transform="translate(1572.76 1091.56) scale(1 1.43)"><tspan x="0" y="0">C-48</tspan></text>
  <text class="cls-6" transform="translate(1575.04 1103.8) scale(1 1.43)"><tspan x="0" y="0">2,36</tspan></text>
  <text class="cls-7" transform="translate(1490.08 1125.04) scale(1 1.43)"><tspan x="0" y="0">C-49</tspan></text>
  <text class="cls-6" transform="translate(1492.36 1137.4) scale(1 1.43)"><tspan x="0" y="0">2,36</tspan></text>
  <text class="cls-7" transform="translate(1240.36 1374.52) scale(1 1.43)"><tspan x="0" y="0">C-50</tspan></text>
  <text class="cls-6" transform="translate(1242.64 1386.88) scale(1 1.43)"><tspan x="0" y="0">2,06</tspan></text>
  <text class="cls-7" transform="translate(1288.6 1517.68) scale(1 1.43)"><tspan x="0" y="0">C-51</tspan></text>
  <text class="cls-6" transform="translate(1290.88 1529.92) scale(1 1.43)"><tspan x="0" y="0">3,89</tspan></text>
  <text class="cls-7" transform="translate(1919.68 888.16) scale(1 1.43)"><tspan x="0" y="0">C-52</tspan></text>
  <text class="cls-6" transform="translate(1921.96 900.52) scale(1 1.43)"><tspan x="0" y="0">4,17</tspan></text>
  <text class="cls-7" transform="translate(1988.8 1032.28) scale(1 1.43)"><tspan x="0" y="0">C-53</tspan></text>
  <text class="cls-6" transform="translate(1991.08 1044.52) scale(1 1.43)"><tspan x="0" y="0">5,57</tspan></text>
  <text class="cls-7" transform="translate(2046.4 1178.32) scale(1 1.43)"><tspan x="0" y="0">C-54</tspan></text>
  <text class="cls-6" transform="translate(2048.68 1190.56) scale(1 1.43)"><tspan x="0" y="0">4,94</tspan></text>
  <text class="cls-7" transform="translate(2150.08 1143.16) scale(1 1.43)"><tspan x="0" y="0">C-55</tspan></text>
  <text class="cls-6" transform="translate(2152.36 1155.52) scale(1 1.43)"><tspan x="0" y="0">3,28</tspan></text>
  <text class="cls-7" transform="translate(2286.64 1111.72) scale(1 1.43)"><tspan x="0" y="0">C-56</tspan></text>
  <text class="cls-6" transform="translate(2288.92 1124.08) scale(1 1.43)"><tspan x="0" y="0">3,66</tspan></text>
  <text class="cls-7" transform="translate(2377.48 1089.16) scale(1 1.43)"><tspan x="0" y="0">C-57</tspan></text>
  <text class="cls-6" transform="translate(2379.76 1101.52) scale(1 1.43)"><tspan x="0" y="0">2,89</tspan></text>
  <text class="cls-7" transform="translate(2484.64 1058.8) scale(1 1.43)"><tspan x="0" y="0">C-58</tspan></text>
  <text class="cls-6" transform="translate(2486.92 1071.16) scale(1 1.43)"><tspan x="0" y="0">2,80</tspan></text>
  <text class="cls-7" transform="translate(2577.28 1032.04) scale(1 1.43)"><tspan x="0" y="0">C-59</tspan></text>
  <text class="cls-6" transform="translate(2579.56 1044.28) scale(1 1.43)"><tspan x="0" y="0">2,46</tspan></text>
  <text class="cls-7" transform="translate(2666.68 1006.24) scale(1 1.43)"><tspan x="0" y="0">C-60</tspan></text>
  <text class="cls-6" transform="translate(2668.96 1018.6) scale(1 1.43)"><tspan x="0" y="0">2,33</tspan></text>
  <text class="cls-7" transform="translate(2755.96 980.56) scale(1 1.43)"><tspan x="0" y="0">C-61</tspan></text>
  <text class="cls-6" transform="translate(2758.24 992.8) scale(1 1.43)"><tspan x="0" y="0">2,19</tspan></text>
  <text class="cls-7" transform="translate(2865.28 949.24) scale(1 1.43)"><tspan x="0" y="0">C-62</tspan></text>
  <text class="cls-6" transform="translate(2867.56 961.6) scale(1 1.43)"><tspan x="0" y="0">2,35</tspan></text>
  <text class="cls-7" transform="translate(3019.6 932.68) scale(1 1.43)"><tspan x="0" y="0">C-63</tspan></text>
  <text class="cls-6" transform="translate(3021.88 945.04) scale(1 1.43)"><tspan x="0" y="0">2,03</tspan></text>
  <text class="cls-7" transform="translate(3023.56 1066.48) scale(1 1.43)"><tspan x="0" y="0">C-64</tspan></text>
  <text class="cls-6" transform="translate(3025.84 1078.84) scale(1 1.43)"><tspan x="0" y="0">3,76</tspan></text>
  <text class="cls-7" transform="translate(2942.2 1099.84) scale(1 1.43)"><tspan x="0" y="0">C-65</tspan></text>
  <text class="cls-6" transform="translate(2944.48 1112.2) scale(1 1.43)"><tspan x="0" y="0">3,64</tspan></text>
  <text class="cls-7" transform="translate(2819.68 1094.8) scale(1 1.43)"><tspan x="0" y="0">C-66</tspan></text>
  <text class="cls-6" transform="translate(2821.96 1107.04) scale(1 1.43)"><tspan x="0" y="0">2,71</tspan></text>
  <text class="cls-7" transform="translate(2845.72 1176.76) scale(1 1.43)"><tspan x="0" y="0">C-67</tspan></text>
  <text class="cls-6" transform="translate(2848 1189) scale(1 1.43)"><tspan x="0" y="0">2,71</tspan></text>
  <text class="cls-7" transform="translate(2872.48 1258.72) scale(1 1.43)"><tspan x="0" y="0">C-68</tspan></text>
  <text class="cls-6" transform="translate(2874.76 1270.96) scale(1 1.43)"><tspan x="0" y="0">2,71</tspan></text>
  <text class="cls-7" transform="translate(2891.8 1340.68) scale(1 1.43)"><tspan x="0" y="0">C-69</tspan></text>
  <text class="cls-6" transform="translate(2893.96 1352.92) scale(1 1.43)"><tspan x="0" y="0">2,31</tspan></text>
  <text class="cls-7" transform="translate(2442.88 1413.64) scale(1 1.43)"><tspan x="0" y="0">C-70</tspan></text>
  <text class="cls-6" transform="translate(2445.16 1426) scale(1 1.43)"><tspan x="0" y="0">2,43</tspan></text>
  <text class="cls-7" transform="translate(2542.6 1398.28) scale(1 1.43)"><tspan x="0" y="0">C-71</tspan></text>
  <text class="cls-6" transform="translate(2544.88 1410.52) scale(1 1.43)"><tspan x="0" y="0">3,16</tspan></text>
  <text class="cls-7" transform="translate(2642.2 1382.8) scale(1 1.43)"><tspan x="0" y="0">C-72</tspan></text>
  <text class="cls-6" transform="translate(2644.48 1395.04) scale(1 1.43)"><tspan x="0" y="0">3,90</tspan></text>
  <text class="cls-7" transform="translate(1369.48 1321.48) scale(1 1.43)"><tspan x="0" y="0">B-01</tspan></text>
  <text class="cls-6" transform="translate(1371.76 1333.84) scale(1 1.43)"><tspan x="0" y="0">5,24</tspan></text>
  <text class="cls-7" transform="translate(1412.44 1439.8) scale(1 1.43)"><tspan x="0" y="0">B-02</tspan></text>
  <text class="cls-6" transform="translate(1414.72 1452.16) scale(1 1.43)"><tspan x="0" y="0">5,76</tspan></text>
  <text class="cls-7" transform="translate(1604.2 1223.32) scale(1 1.43)"><tspan x="0" y="0">B-03</tspan></text>
  <text class="cls-6" transform="translate(1606.48 1235.56) scale(1 1.43)"><tspan x="0" y="0">5,88</tspan></text>
  <text class="cls-7" transform="translate(1808.92 1138.12) scale(1 1.43)"><tspan x="0" y="0">B-04</tspan></text>
  <text class="cls-6" transform="translate(1811.2 1150.48) scale(1 1.43)"><tspan x="0" y="0">5,88</tspan></text>
  <text class="cls-7" transform="translate(1858.84 1250.32) scale(1 1.43)"><tspan x="0" y="0">B-05</tspan></text>
  <text class="cls-6" transform="translate(1861.12 1262.56) scale(1 1.43)"><tspan x="0" y="0">7,01</tspan></text>
  <text class="cls-7" transform="translate(1650.64 1327.36) scale(1 1.43)"><tspan x="0" y="0">B-06</tspan></text>
  <text class="cls-6" transform="translate(1652.92 1339.6) scale(1 1.43)"><tspan x="0" y="0">6,09</tspan></text>
  <text class="cls-7" transform="translate(2038 1417.6) scale(1 1.43)"><tspan x="0" y="0">A-01</tspan></text>
  <text class="cls-6" transform="translate(2038.48 1429.96) scale(1 1.43)"><tspan x="0" y="0">22,50</tspan></text>
  <polygon class="cls-19" points="1732.48 1675.48 1738.24 1656.76 1750.96 1637.68 1760.2 1622.32 1772.08 1608.04 1783.48 1605.28 1805.08 1605.28 1839.76 1569.04 1839.04 1567.84 1838.32 1566.4 1824.52 1560.16 1788.16 1542.16 1775.68 1522.36 1769.08 1503.04 1761.64 1499.68 1753.72 1499.56 1750.48 1483.84 1743.4 1478.2 1723.36 1476.64 1694.32 1474.6 1686.64 1474.48 1677.88 1478.8 1666.72 1479.64 1648.36 1472.56 1624.12 1463.68 1607.68 1460.8 1593.88 1461.64 1584.52 1464.4 1594 1483.48 1608.64 1514.92 1641.52 1586.08 1677.4 1663.48 1683.64 1677.76 1700.92 1714.12 1706.8 1714.91 1732.27 1686.87 1732.9 1680.7 1732.48 1675.48"/>
  <path class="cls-17" d="M3122.2,1957.48l-14.04-1.08-13.92-.72-13.92-.12-14.04.24-13.92.72-13.92,1.2-13.92,1.56-13.8,2.16-13.68,2.52-13.68,2.88-13.56,3.48-13.44,3.84-13.32,4.32-13.08,4.68-.36.12-.24.12-.36.12-.36.12-.24.12-.36.12-.24.12-.36.12-.24.12-.36.12-.36.12-.24.12-.36.12-.24.12-.36.12-.24.12-.36.12-.24.12-.36.12-.24.12-.36.12-.36.12-.24.12-.36.12-.24.12-.36.12-.24.12-.36.12-.24.12-.36.12-.36.12-.24.12-.36.12-.24.12-.36.24-.24.12-.36.12-.24.12-.36.12-.24.12-.36.12-.24.12-.36.12-.36.12-.24.12-.36.12-.24.12-.36.12-.24.12-.36.12-.24.12-.36.12-.24.12-.36.12-.24.12-.36.24-.36.12-.24.12-.36.12-.24.12-.36.12-.24.12-.36.12-.24.12-.36.12-.24.12-.36.12-.24.12-.36.12-.24.24-.36.12-.36.12-.24.12-.36.12-.24.12-.36.12-.24.12-.36.12-.24.12-.36.12-.24.12-.36.24-.24.12-.36.12-.24.12-.36.12-.24.12-.36.12-.36.12-.24.12-.36.12-.24.24-.36.12-.24.12-.36.12-.24.12-.36.12-.24.12-.36.12-.24.12-.36.12-.24.24-.36.12-.24.12-.36.12-.24.12-.36.12-.24.12-.36.12-.36.12-.24.24-.36.12-.24.12-.36.12-.24.12-.36.12-.24.12-.36.12-.24.12-.36.24-.24.12-.36.12-.24.12-.36.12-.24.12-.36.12-.24.12-.36.24-.24.12-.36.12-.24.12-.36.12-.36.12-.24.12-.36.12-.24.24-.36.12-.24.12-.36.12-.24.12-.36.12-.24.12-.36.12-.24.24-.36.12-.24.12-.36.12-.24.12-.36.12-.24.12-108.48,48.36-.36.24-.24.12-.36.12-.24.12-.36.12-.24.12-.36.12-.36.12-.24.24-.36.12-.24.12-.36.12-.24.12-.36.12-.24.12-.36.12-.24.24-.36.12-.24.12-.36.12-.24.12-.36.12-.24.12-.36.12-.24.24-.36.12-.36.12-.24.12-.36.12-.24.12-.36.12-.24.12-.36.24-.24.12-.36.12-.24.12-.36.12-.24.12-.36.12-.24.12-.36.24-.24.12-.36.12-.36.12-.24.12-.36.12-.24.12-.36.12-.24.24-.36.12-.24.12-.36.12-.24.12-.36.12-.24.12-.36.12-.24.12-.36.24-.36.12-.24.12-.36.12-.24.12-.36.12-.24.12-.36.12-.24.24-.36.12-.24.12-.36.12-.24.12-.36.12-.24.12-.36.12-.36.12-.24.24-.36.12-.24.12-.36.12-.24.12-.36.12-.24.12-.36.12-.24.12-.36.12-.36.24-.24.12-.36.12-.24.12-.36.12-.24.12-.36.12-.24.12-.36.12-.24.12-.36.24-.24.12-.36.12-.36.12-.24.12-.36.12-.24.12-.36.12-.24.12-.36.12-.24.24-.36.12-.36.12-.24.12-.36.12-.24.12-.36.12-.24.12-.36.12-.24.12-.36.12-.36.12-.24.24-.36.12-.24.12-.36.12-.24.12-.36.12-.24.12-.36.12-.36.12-.24.12-.36.12-.24.12-.36.12-.24.24-.36.12-.24.12-.36.12-.36.12-.24.12-.36.12-.24.12-.36.12-.24.12-.36.12-.36.12-.24.12-.36.12-.24.12-.36.12-.24.24-.36.12-.24.12-.36.12-.36.12v-.02c-122.98,50.31-256.58,69.19-388.7,54.92l-.03-.13c-3.46-.37-6.76,1.54-8.16,4.72l.05.15-29.88,68.04"/>
  <path class="cls-17" d="M1872.04,2150.08l4.44-91.44v.03c.12-2.28,1.2-4.39,2.97-5.82,1.77-1.43,4.07-2.03,6.32-1.66h-.05s192.6,32.17,192.6,32.17l217.44,36.12v.04c5.88.98,11.77,1.89,17.66,2.74l-.03-.06c2.47.35,4.63,1.84,5.84,4.02s1.33,4.8.33,7.08l.07.09-26.64,60.6"/>
  <path class="cls-17" d="M3122.92,1949.92l-12.72-1.08-12.72-.6-12.72-.36-12.73.12c-4.27.09-7.86-3.2-8.13-7.47l-.48-7.1c-2.82-44.43,17.49-87.17,53.73-113.03l53.05-37.76"/>
  <path class="cls-17" d="M462.52,544l5.16,6.24,93.24,25.56h-.08c2.93.8,5.33,2.91,6.51,5.71l.05.05,55.08,131.52.05-.07c2.11,5.04,7.91,7.42,12.96,5.31l.07.05,340.32-142.56h-.14c13.11-5.49,26.98-8.94,41.13-10.23l.05.03,235.2-21.36"/>
  <path class="cls-17" d="M2874.64,1482.34c0-1.04-.17-2.08-.49-3.07"/>
  <path class="cls-17" d="M1580.32,1466.92l117.96,247.8-.07-.08c.95,2,2.84,3.4,5.04,3.73,2.19.33,4.41-.46,5.9-2.1l.06.02,63-69.12-.11-.07c4.72-5.19,11.93-7.33,18.72-5.57,6.79,1.76,12.05,7.14,13.65,13.97l.02.06,3.96,16.68-.04-.03c3.07,13.06,14.42,22.51,27.82,23.15l.06.03,144.12,6.84h-.06c23.65,1.13,46.18,10.41,63.77,26.25l.13.03,6.72,6.12v-.03c15.16,13.66,25.92,31.53,30.88,51.34l.08.05,27.6,110.4-.03-.1c5.89,23.49,6.66,47.97,2.26,71.78l.05.08-18.84,101.64-.11-.07c-.39,2.11.08,4.28,1.31,6.03,1.23,1.75,3.11,2.94,5.22,3.29l.17.11,197.4,32.88.05-.09c7.99,1.33,16,2.54,24.03,3.63h-.01c3.54.47,6.96-1.45,8.38-4.72l.07.11,85.08-195.24-.04-.14c20.5-46.98,10.76-101.67-24.7-138.68l-.04.04c-.83-.86-1.45-1.9-1.82-3.04l.09.1-168.96-517.08-.13-.13c-1.7-5.2-7.29-8.03-12.49-6.34l.13.11-620.4,202.68v-.11c-2.72.88-4.92,2.89-6.04,5.51-1.12,2.62-1.06,5.59.16,8.16"/>
  <path class="cls-17" d="M2224.12,1255.24l48,146.88h0c1.7,5.21,7.29,8.05,12.49,6.35h.11s485.28-158.51,485.28-158.51l-.11-.13c5.2-1.7,8.03-7.29,6.34-12.49l.13.13-48-147h-.13c-1.7-5.21-7.29-8.05-12.49-6.35h.01s-485.28,158.51-485.28,158.51h-.01c-5.2,1.71-8.03,7.3-6.34,12.49"/>
  <path class="cls-17" d="M919.77,880.07c5.04-2.11,7.42-7.91,5.31-12.96"/>
  <line class="cls-17" x1="919.84" y1="880.12" x2="735.64" y2="957.28"/>
  <path class="cls-17" d="M722.61,951.93c2.11,5.04,7.91,7.42,12.96,5.31"/>
  <path class="cls-17" d="M722.56,952l-87.48-209.04-.07-.07c-2.11-5.04.26-10.84,5.31-12.96l.05.07,184.2-77.16-.05-.07c5.04-2.11,10.84.26,12.96,5.31l.17.05,87.48,209.04"/>
  <path class="cls-17" d="M935.75,892.79c-2.11-5.04-7.91-7.42-12.96-5.31l.05-.05-184.2,77.16.07.05c-5.04,2.11-7.42,7.91-5.31,12.96l-.05.07,90.84,216.84.05-.07c2.11,5.04,7.91,7.42,12.96,5.31l.07.17,184.2-77.16-.07-.17c5.04-2.11,7.42-7.91,5.31-12.96l.05.05-90.84-216.84"/>
  <path class="cls-17" d="M1253.2,556.72l-235.08,21.48-.11-.08c-12.87,1.17-25.48,4.31-37.4,9.3l.07.02-105.96,44.4-.05-.07c-5.04,2.11-7.42,7.91-5.31,12.96l.07.07,189.12,451.56.05-.07c2.11,5.04,7.91,7.42,12.96,5.31l.07.17,524.88-219.84-.07-.17c5.04-2.11,7.42-7.91,5.31-12.96l.05.05-74.52-177.84-6.84-4.32"/>
  <path class="cls-17" d="M1904.2,1046.8l97.44,232.8-.05-.05c1.07,2.55,1.02,5.43-.13,7.94-1.15,2.51-3.3,4.43-5.93,5.29l.11.13-415.44,135.72v-.13c-4.89,1.6-10.2-.83-12.19-5.59l-.05.07-83.88-200.28-.07-.07c-2.11-5.04.26-10.84,5.31-12.96l.05.07,401.76-168.24-.05-.07c5.04-2.11,10.84.26,12.96,5.31"/>
  <path class="cls-17" d="M1388.08,993.64l85.2,203.4.05-.07c2.11,5.04,7.91,7.42,12.96,5.31l.07.17,401.64-168.36-.07-.05c5.04-2.11,7.42-7.91,5.31-12.96l.17.05-85.2-203.4-.17-.05c-2.11-5.04-7.91-7.42-12.96-5.31l.05-.05-401.64,168.24-.05.05c-5.04,2.11-7.42,7.91-5.31,12.96"/>
  <path class="cls-17" d="M457.96,560.68l7.68-2.76,89.4,24.6h-.08c2.93.8,5.33,2.91,6.51,5.71l.17.05,53.52,127.8-.05-.05c2.11,5.04-.26,10.84-5.31,12.96l.07.17-131.64,55.08-.07-.05c-4.2,1.76-9.07.42-11.78-3.24l-.03.05-13.8-18.48-155.52-207.36L97.36,285.04l-.07-.11c-40.77-55.17-42.39-130.03-4.04-186.9l.04.05,18.84-27.84"/>
  <path class="cls-17" d="M1292.2,2204.8l-23.88-119.4-.08-.06c-.78-3.89,1.42-7.76,5.16-9.09l.09.02,139.68-49.56,13.56-4.56,13.68-4.08,13.8-3.6,13.92-3.12,14.04-2.76,14.16-2.28,14.16-1.68,14.16-1.32,14.28-.84,14.64-.36,14.64.24,14.64.6,14.52,1.2,14.52,1.68,14.52,2.16,210.72,35.16,21.6,3.6-.07-.13c3.99.67,6.86,4.22,6.66,8.26l.13.03-4.68,94.56"/>
  <path class="cls-17" d="M1443.83,1209.35c2.11,5.04-.26,10.84-5.31,12.96l.07.05-269.16,112.8-.07-.17c-5.04,2.11-10.84-.26-12.96-5.31l-.05.07-85.2-203.4-.07-.07c-2.11-5.04.26-10.84,5.31-12.96l.05.07,269.28-112.8-.05-.07c5.04-2.11,10.84.26,12.96,5.31l.05.05,85.32,203.52"/>
  <path class="cls-17" d="M1153.12,1512.28l66.24,158.04-.07-.16c.66,1.58,2.05,2.75,3.72,3.14,1.67.39,3.43-.05,4.72-1.18l.03.12,130.68-114.12h-.01c20.75-18.1,43.27-34.06,67.21-47.65h0s109.08-61.79,109.08-61.79l-.09-.09c4.36-2.47,6.18-7.81,4.24-12.43l.05.05-84.24-201.12-.05-.05c-2.11-5.04-7.91-7.42-12.96-5.31l.05-.05-310.2,129.96-92.16-219.96-.17-.05c-2.11-5.04-7.91-7.42-12.96-5.31l.05.07-226.68,94.92-.05.05c-2.79,1.17-4.9,3.56-5.71,6.48-.81,2.92-.24,6.05,1.55,8.5l-.06-.04c1.2,1.65,2.42,3.28,3.64,4.91l7.56,8.91c12.79,13.53,26.51,26.14,41.06,37.76l.12.05,53.64,44.88-.13-.06c10,8.16,19.74,16.65,29.19,25.44h.03c6.9,6.45,13.4,13.31,19.47,20.55l.07-.06c.9,1.09,1.79,2.18,2.67,3.29l.04.11c5.42,6.9,10.45,14.11,15.04,21.59l-.2-.08c7.02,11.61,13.65,23.46,19.89,35.51l.21.15,44.04,83.16,10.92,20.52,10.68,20.64,3.12,6.48,19.92,42,5.4,11.76-.12-.07c6.4,14.05,13.06,27.97,19.97,41.77l.1-.02c3.99,7.86,8.13,15.64,12.42,23.33l.02.03,10.56,18.36,10.8,18.12v-.08c1.47,2.42,3.91,4.09,6.69,4.6,2.79.5,5.65-.21,7.88-1.96l.07.07,39.48-30.96-.13-.07c3.72-2.92,7.36-5.94,10.93-9.05h.12s14.52-12.6,14.52-12.6l-.03-.12c1.73-1.51,2.3-3.97,1.42-6.09l.05.08-61.56-146.88-5.16-2.16"/>
  <rect class="cls-14" x="619.55" y="2217.78" width="407.24" height="32.68" transform="translate(-680.21 387.84) rotate(-18.93)"/>
  <text class="cls-8" transform="translate(1057.4 1322.75) rotate(66.95)"><tspan x="0" y="0">WASTE WATER</tspan><tspan x="0" y="19.2">TREATMENT PLANT</tspan></text>
  <text class="cls-1" transform="translate(223.72 2191.56)"><tspan x="0" y="0">PHU THO</tspan></text>
  <text class="cls-3" transform="translate(1185.41 2248.02)"><tspan x="0" y="0">to HA NOI - MOC CHAU </tspan><tspan x="43.88" y="25.86">EXPRESS WAY</tspan></text>
  <text class="cls-3" transform="translate(1799.66 2197.61)"><tspan x="0" y="0">to HOP THANH </tspan><tspan x="22.36" y="25.86">COMMUNE</tspan></text>
  <text class="cls-3" transform="translate(2209.54 2249.97)"><tspan x="0" y="0">to HOP THANH </tspan><tspan x="22.36" y="25.86">COMMUNE</tspan></text>
  <text class="cls-3" transform="translate(2928.58 1739.29)"><tspan x="0" y="0">to HA NOI - HOA BINH </tspan><tspan x="41.16" y="25.86">EXPRESSWAY</tspan></text>
  <text class="cls-3" transform="translate(2920.53 2035.33)"><tspan x="0" y="0">to HA NOI - HOA BINH </tspan><tspan x="41.16" y="25.86">EXPRESSWAY</tspan></text>
  <text class="cls-1" transform="translate(2905.38 670.87)"><tspan x="0" y="0">HA NOI</tspan></text>
  <polyline class="cls-18" points="2214.76 1207.36 2214.4 1203.76 2214.28 1201.6 2214.28 1200.28 2214.16 1199.2 2214.16 1198.84 2214.16 1197.52 2214.04 1196.2 2214.04 1195 2214.04 1194.88 2213.92 1193.56 2213.92 1192.24 2213.8 1190.92 2213.8 1189.96 2213.8 1189.6 2213.8 1188.4 2213.8 1187.2 2213.92 1185.88 2213.92 1184.68 2214.16 1183.48 2214.28 1182.28 2214.52 1181.08 2214.76 1179.88 2215 1178.68 2215.12 1178.44 2215.36 1177.48 2215.6 1176.28 2215.96 1175.08 2216.32 1173.88 2216.8 1172.8 2217.16 1171.6 2217.4 1170.76 2217.64 1170.52 2218.24 1169.32 2218.72 1168.24 2219.08 1167.64 2219.32 1167.16 2220.04 1165.96 2220.64 1164.76 2220.88 1164.4 2221.36 1163.68 2221.48 1163.32 2221.96 1162.48 2222.2 1162.12 2222.56 1161.28 2222.8 1160.92 2223.28 1160.2 2223.4 1159.84 2223.88 1159 2224.12 1158.64 2224.48 1157.8 2224.72 1157.44 2225.44 1156.36 2226.04 1155.16 2226.64 1154.32 2226.76 1154.08 2227.48 1152.88 2228.08 1151.56 2228.68 1150.36 2229.28 1149.04 2229.88 1147.72 2230.36 1146.4 2230.72 1145.08 2230.96 1144.24 2231.08 1143.76 2231.44 1142.32 2231.8 1141 2232.04 1139.68 2232.28 1138.24 2232.4 1136.8 2232.52 1135.48 2232.64 1134.04 2232.64 1132.6 2232.52 1131.28 2232.52 1129.84 2232.4 1129.12 2232.4 1128.4 2232.28 1127.08 2232.04 1125.64 2231.8 1124.32 2231.44 1122.88 2231.08 1121.56 2230.96 1121.08 2230.72 1120.24 2230.36 1118.92 2230 1117.72 2229.64 1116.4 2229.28 1115.08 2228.92 1113.88 2228.56 1112.56 2228.2 1111.36 2228.8 1109.92 2227.84 1110.04 2226.4 1102.48 2225.32 1101.16 2224.96 1099.84 2224.6 1098.52 2224.36 1097.32 2224 1096 2223.64 1094.68 2223.4 1093.36 2223.04 1092.16 2222.68 1090.84 2222.44 1089.88 2222.44 1089.52 2222.08 1088.32 2221.96 1087.12 2221.72 1085.92 2221.6 1084.72 2221.72 1083.4 2221.48 1083.52 2221.36 1082.2 2221.36 1081 2221.36 1079.8 2221.48 1078.6 2221.48 1078.12 2221.48 1077.4 2221.6 1076.08 2221.72 1074.88 2221.84 1073.68 2221.96 1072.48 2222.08 1072.24 2222.2 1071.28 2222.44 1070.08 2222.68 1068.88 2223.04 1067.68 2223.4 1066.48 2223.4 1066.36 2223.88 1065.28 2224.24 1063.96 2224.72 1062.76 2225.08 1061.44 2225.56 1060.24 2226.04 1058.92 2226.4 1057.72 2226.88 1056.4 2226.88 1056.16 2229.64 1048.84 2230.12 1047.64 2230.6 1046.44 2231.08 1045.12 2231.56 1043.92 2232.04 1042.72 2232.4 1041.4 2232.52 1041.16 2232.88 1040.2 2233.36 1038.88 2233.84 1037.56 2234.2 1036.24 2234.56 1034.92 2234.8 1033.48 2235.04 1032.64 2235.16 1032.16 2235.4 1030.84 2235.64 1029.4 2235.76 1028.08 2236 1026.76 2236 1026.64 2236.12 1025.32 2236.12 1024 2236.24 1022.56 2236.24 1021.12 2236.24 1020.16 2236.24 1019.8 2236.12 1018.36 2236.12 1017.04 2236 1015.6 2235.76 1014.28 2235.64 1012.96 2235.52 1011.88 2235.4 1011.52 2235.16 1010.2 2235.04 1008.88 2234.8 1007.68 2234.56 1006.36 2234.32 1005.04 2233.72 1001.44 2232.16 991.72 2230.48 981.76 2229.04 972.76 2228.2 967.96 2227.48 963.4 2227.12 961.24 2226.88 959.92 2226.64 958.6 2226.52 957.88 2226.52 957.28 2226.28 955.96 2226.04 954.64 2225.8 953.32 2225.68 952.84 2225.56 952.12 2225.44 950.8 2225.2 949.72 2225.2 949.48 2224.96 948.04 2224.6 946.72 2224.24 945.28 2224.12 944.92 2223.88 943.96 2223.4 942.64 2222.92 941.32 2222.44 940 2221.96 938.8 2221.36 937.48 2220.76 936.28 2220.04 935.08 2220.04 934.96 2219.32 933.76 2218.6 932.56 2217.88 931.48 2217.04 930.28 2216.2 929.2 2215.24 928.12 2215.12 928 2214.4 927.04 2213.44 926.08 2212.48 925 2211.4 924.04 2210.44 923.08 2209.36 922.24 2208.28 921.28 2207.08 920.56 2206 919.72 2204.8 918.88 2203.72 918.28 2203.6 918.16 2202.4 917.56 2201.2 916.84 2199.88 916.24 2198.68 915.64 2197.36 915.16 2196.04 914.68 2195.44 914.44 2194.72 914.2 2193.52 913.72 2192.2 913.36 2191 912.88 2189.68 912.4 2188.48 912.04 2187.28 911.56 2185.96 911.08 2184.76 910.72 2183.68 910.36 2174.92 907.36 2163.88 903.52 2161.12 902.44 2159.8 901.96 2158.6 901.6 2157.76 901.24 2157.4 901.12 2156.08 900.64 2154.88 900.16 2153.68 899.68 2152.36 899.2 2151.16 898.72 2150.2 898.36 2149.96 898.24 2148.76 897.76 2147.68 897.16 2146.6 896.68 2145.52 896.08 2144.44 895.48 2143.36 894.88 2142.76 894.4 2142.28 894.16 2141.32 893.44 2140.36 892.72 2139.28 892 2138.32 891.28 2138.2 891.04 2137.48 890.44 2136.52 889.6 2135.68 888.76 2134.84 887.92 2134.72 887.92 2133.88 887.08 2133.04 886.12 2132.2 885.16 2131.48 884.2 2130.64 883.24 2129.92 882.28 2129.32 881.2 2128.84 880.48 2128.6 880.12 2127.88 879.04 2127.16 877.84 2126.56 876.76 2125.84 875.56 2125.12 874.48 2124.4 873.4 2124.16 872.92 2123.8 872.2 2123.08 871.12 2117.32 860.92 2111.32 850.24 2107.12 843.04 2105.68 840.52 2105.08 839.32 2104.36 838.12 2103.76 837.04 2103.04 835.84 2102.44 834.64 2101.72 833.56 2101 832.36 2100.52 831.52 2100.28 831.28 2099.56 830.08 2098.84 829 2098.12 827.8 2097.4 826.72 2097.04 826.12 2096.68 825.64 2095.96 824.44 2095.24 823.36 2093.2 820.36 2089.36 814.6 2085.04 808.24 2081.44 802.72 2075.56 793.84"/>
  <polyline class="cls-18" points="2210.2 1208.8 2210.2 1208.32 2209.84 1204.12 2209.6 1201.96 2209.6 1200.52 2209.48 1199.56 2209.48 1199.2 2209.36 1197.88 2209.24 1196.56 2209.12 1195.36 2209.12 1195.24 2209 1193.92 2209 1192.6 2208.88 1191.28 2208.76 1190.32 2208.76 1189.96 2208.64 1188.52 2208.64 1187.2 2208.64 1185.76 2208.76 1184.32 2208.88 1183 2209 1181.56 2209.24 1180.24 2209.48 1178.8 2209.72 1177.48 2209.84 1177.24 2210.08 1176.04 2210.44 1174.72 2210.92 1173.4 2211.4 1172.08 2211.88 1170.76 2212.48 1169.44 2212.72 1168.6 2213.08 1168.24 2213.68 1166.92 2214.4 1165.72 2214.76 1165.12 2215.12 1164.52 2215.72 1163.44 2216.44 1162.24 2216.68 1161.88 2217.16 1161.16 2217.28 1160.8 2217.4 1160.8 2217.76 1159.96 2218 1159.6 2218.48 1158.88 2218.72 1158.52 2219.2 1157.68 2219.32 1157.32 2219.8 1156.6 2220.04 1156.24 2220.52 1155.4 2220.76 1155.04 2221.36 1153.96 2222.08 1152.76 2222.56 1151.92 2222.68 1151.68 2223.28 1150.6 2223.88 1149.4 2224.36 1148.32 2224.84 1147.12 2225.32 1146.04 2225.68 1144.84 2226.04 1143.64 2226.16 1142.8 2226.4 1142.44 2226.16 1141.12 2226.4 1139.92 2226.64 1138.72 2226.88 1137.52 2227 1136.32 2227.12 1135.12 2227.12 1133.92 2227.24 1132.6 2227.24 1131.4 2227.24 1130.2 2227.12 1129.6 2227.12 1129 2227 1127.68 2226.88 1126.48 2226.76 1125.28 2226.52 1124.08 2226.28 1122.88 2226.16 1122.52 2225.92 1121.56 2225.56 1120.36 2225.32 1119.04 2224.96 1117.72 2224.6 1116.4 2224.36 1115.2 2224 1113.88 2223.64 1112.56 2224.36 1111.36 2223.4 1111.36 2222.08 1103.92 2220.76 1102.36 2220.4 1101.16 2220.04 1099.84 2219.68 1098.64 2219.32 1097.32 2218.96 1096 2218.6 1094.8 2218.24 1093.48 2217.88 1092.16 2217.64 1091.2 2217.52 1090.96 2217.16 1089.52 2216.92 1088.2 2216.56 1086.76 2216.44 1085.44 2216.56 1084 2216.2 1084 2216.08 1082.68 2216.08 1081.24 2215.96 1079.8 2215.96 1078.48 2216.08 1077.88 2216.08 1077.04 2216.2 1075.6 2216.32 1074.28 2216.56 1072.84 2216.8 1071.4 2216.92 1071.28 2217.04 1070.08 2217.4 1068.76 2217.76 1067.32 2218.24 1066 2218.72 1064.68 2219.2 1063.48 2219.68 1062.28 2220.16 1060.96 2220.64 1059.76 2221 1058.56 2221.48 1057.24 2221.96 1056.04 2222.44 1054.72 2222.56 1054.48 2225.32 1047.28 2225.68 1045.96 2226.16 1044.76 2226.52 1043.44 2227 1042.24 2227.36 1040.92 2227.84 1039.72 2227.96 1039.36 2228.2 1038.52 2228.56 1037.32 2228.92 1036 2229.16 1034.8 2229.52 1033.6 2229.76 1032.4 2229.88 1031.56 2229.88 1031.08 2230.12 1029.88 2230.36 1028.68 2230.48 1027.48 2230.72 1026.16 2230.84 1024.96 2230.84 1023.64 2230.96 1022.44 2230.96 1021.12 2230.96 1020.28 2230.96 1019.92 2230.96 1018.6 2230.96 1017.4 2230.84 1016.2 2230.84 1014.88 2230.72 1013.68 2230.6 1012.72 2230.48 1012.36 2230.36 1011.04 2230.24 1009.72 2230 1008.4 2229.88 1007.08 2229.76 1005.76 2229.16 1002.28 2227.6 992.44 2225.92 982.48 2224.48 973.6 2223.64 968.8 2222.92 964.12 2222.56 961.96 2222.32 960.64 2221.96 959.44 2221.84 958.6 2221.72 958.12 2221.48 956.8 2221.24 955.48 2221 954.16 2220.88 953.56 2220.76 952.84 2220.4 951.52 2220.28 950.56 2220.16 950.32 2219.92 949.12 2219.56 947.92 2219.2 946.72 2219.08 946.24 2218.84 945.52 2218.48 944.32 2218 943.24 2217.52 942.04 2216.92 940.96 2216.44 939.88 2215.84 938.8 2215.36 937.72 2215.24 937.72 2214.64 936.64 2214.04 935.56 2213.32 934.48 2212.6 933.52 2211.88 932.56 2211.16 931.6 2211.04 931.48 2210.32 930.64 2209.48 929.8 2208.64 928.84 2207.68 928 2206.84 927.16 2205.88 926.44 2204.92 925.6 2203.96 924.88 2202.88 924.16 2201.92 923.44 2200.96 922.84 2200.84 922.84 2199.88 922.12 2198.8 921.52 2197.72 920.92 2196.52 920.44 2195.44 919.84 2194.36 919.36 2193.76 919.12 2193.16 918.88 2191.84 918.4 2190.64 917.92 2189.44 917.44 2188.12 916.96 2186.92 916.48 2185.72 916 2184.4 915.52 2183.2 915.04 2182.12 914.68 2173.48 911.68 2162.44 907.84 2159.56 906.88 2158.24 906.4 2157.04 906.04 2156.2 905.68 2155.84 905.56 2154.52 905.2 2153.32 904.72 2152 904.24 2150.8 903.88 2149.48 903.4 2148.52 903.04 2148.28 902.92 2146.96 902.44 2145.64 901.96 2144.32 901.36 2143.12 900.76 2141.92 900.16 2140.6 899.44 2139.88 898.96 2139.4 898.72 2138.32 897.88 2137.12 897.16 2136.04 896.32 2134.96 895.48 2134.72 895.24 2133.88 894.52 2132.8 893.56 2131.84 892.6 2130.88 891.64 2130.76 891.64 2129.92 890.56 2128.96 889.48 2128.12 888.4 2127.28 887.32 2126.44 886.12 2125.6 885.04 2124.88 883.84 2124.4 883 2124.28 882.64 2123.56 881.44 2122.96 880.36 2122.24 879.16 2121.64 877.96 2120.92 876.88 2120.32 875.68 2120.08 875.2 2119.6 874.48 2119 873.4 2113.24 863.2 2107.24 852.64 2103.16 845.32 2101.72 842.8 2101 841.6 2100.4 840.52 2099.68 839.32 2099.08 838.12 2098.36 837.04 2097.76 835.96 2097.04 834.76 2096.56 833.92 2096.32 833.68 2095.72 832.6 2095 831.52 2094.28 830.32 2093.56 829.24 2093.2 828.76 2092.84 828.16 2092.12 827.08 2091.4 826 2089.36 822.88 2085.52 817.24 2081.2 810.76 2077.6 805.24 2071.6 796.48"/>
  <path class="cls-17" d="M743.68,1162.1c-.55-.82-1.11-1.64-1.67-2.45l-.03-.04c-8.94-12.74-18.29-25.18-28.05-37.31l-.49-.62c-19.76-23.56-36.38-49.57-49.46-77.4l-4.04-7.83c-6.89-13.99-14.43-27.64-22.6-40.92l.02-.02c-4.49-6.99-9.34-13.73-14.54-20.21h.11c-9.97-12.02-20.54-23.52-31.66-34.47v.13s-11.99-12.12-11.99-12.12l-10.8-11.04-10.44-11.16-10.2-11.52-4.59-5.76c-9.45-12.12-18.41-24.61-26.86-37.45v.13s-26.75-38.88-26.75-38.88l-3.72-5.28.04-.08c-1.74-2.45-2.28-5.56-1.46-8.46.82-2.89,2.92-5.25,5.7-6.42l.05-.05,124.44-52.08-.05-.07c5.04-2.11,10.84.26,12.96,5.31l.17.05,189.12,451.56-.05-.05c2.11,5.04-.26,10.84-5.31,12.96l.07.05-22.68,9.6-.07-.17c-4.51,1.89-9.73.2-12.28-3.97h-.13c-2.74-4.48-5.39-9.01-7.95-13.6l-.41-.66c-7.74-13.51-15.9-26.77-24.48-39.76"/>
  <path class="cls-17" d="M105.76,65.92l-18.84,27.96.06-.08c-40.13,59.53-38.44,137.88,4.23,195.62l.03.17,14.28,19.32,185.4,250.8,155.52,207.36,27.6,37.32,9.36,13.08,26.64,38.76,8.76,12.96,9.12,12.6,9.36,12.48,4.8,5.76,10.32,11.64,10.56,11.4,10.92,11.16,12,12.12-.07-.11c10.94,10.77,21.34,22.08,31.15,33.89v-.05c5.01,6.24,9.68,12.73,14,19.45l-.04.05c8.04,13.08,15.47,26.52,22.25,40.3l3.91,7.78c13.33,28.35,30.27,54.85,50.4,78.86l.51.45c9.67,12.01,18.94,24.34,27.8,36.96l1.54,2.39c8.48,12.83,16.55,25.94,24.19,39.28l.4.6c9.26,16.57,19.65,32.48,31.08,47.63l7.87,9.45c13.04,13.8,27.03,26.67,41.87,38.52l.17.09,53.52,44.76-.11-.03c9.89,8.07,19.51,16.46,28.86,25.15l.02-.02c6.67,6.24,12.96,12.88,18.83,19.88l2.62,3.07c5.23,6.66,10.08,13.62,14.51,20.84l-.1-.02c6.94,11.48,13.5,23.2,19.67,35.12l.06.05,44.16,83.28,10.92,20.4,10.56,20.64,3.12,6.36,19.8,41.88,5.4,11.64h-.04c6.44,14.12,13.14,28.14,20.09,42.02l.09-.09c4.04,7.97,8.24,15.85,12.59,23.65l-.14-.02c7.67,13.52,15.57,26.92,23.69,40.18l.12.11,48.48,80.04-.05-.04c5.24,8.53,10.3,17.16,15.18,25.89l-.06.04c2.58,4.68,5.03,9.43,7.33,14.25l4.66,10.42c5.65,14.28,10.58,28.83,14.79,43.6l.15.17,6.24,20.88.03-.04c4.57,14.74,8.87,29.57,12.89,44.47l-.08-.03c1.41,5.32,2.75,10.65,4.02,16.01l.06.07,5.04,22.56,4.68,22.68,4.92,24.6-.04-.08c.78,3.89-1.41,7.77-5.16,9.1l.03-.02-690.96,245.16"/>
  <path class="cls-17" d="M1284.76,2206.36l-23.28-116.52-.03-.06c-.45-2.27-1.87-4.23-3.89-5.38s-4.42-1.36-6.61-.58l-.03.14-685.32,243"/>
  <path class="cls-17" d="M1848.52,2024.32v-.11c1.45,2.68,1.24,5.95-.53,8.42-1.77,2.47-4.8,3.72-7.8,3.22h.05s-1.92-.25-1.92-.25l-210.72-35.16-14.76-2.16-14.76-1.68-14.76-1.2-14.88-.72-14.88-.12-14.88.36-14.52.84-14.52,1.32-14.4,1.68-14.4,2.28-14.28,2.76-14.16,3.24-14.04,3.72-13.92,4.2-13.8,4.56-133.92,47.52-.15.02c-2.18.77-4.59.56-6.6-.58-2.01-1.14-3.43-3.1-3.89-5.37l.08.04-4.2-20.88-4.56-22.8-5.16-22.68v-.08c-1.31-5.46-2.68-10.89-4.11-16.31l-.03.02c-4.05-14.99-8.37-29.91-12.97-44.74l.07.03-6.24-20.76-.1-.12c-4.28-15.02-9.31-29.82-15.05-44.35l-.02.1c-1.53-3.68-3.15-7.33-4.87-10.93l-7.45-14.75c-4.93-8.82-10.05-17.55-15.34-26.16v.1s-27.13-44.76-27.13-44.76v.03c-2.48-4.08-1.69-9.34,1.87-12.52l.53-.47,43.8-34.32,11.88-9.84,38.76-33.84,16.32-14.28,5.28-4.56,16.68-14.52,36.12-31.56,12.48-10.8,32.28-28.2.07-.09c19.47-16.98,40.6-31.96,63.07-44.72l-.02.05,8.64-4.92,13.68-7.8,94.92-53.76.12-.12-.03-.03c2.39-1.36,5.24-1.66,7.86-.83s4.78,2.71,5.96,5.19l.12.12,134.04,281.52,143.52,269.52-.6-.96,2.16,3.96Z"/>
  <path class="cls-17" d="M2388.76,1758.88l-108-330.24v-.11c-1.69-5.2,1.15-10.79,6.35-12.49h.13s485.28-158.53,485.28-158.53h-.13c5.2-1.69,10.79,1.15,12.49,6.35h.13s71.28,218.29,71.28,218.29l.48,3.12v370.8-.06c0,26.71,5.15,53.18,15.15,77.94.18.44.36.87.54,1.31l.05-.06c9.63,23.38,4.04,50.27-14.13,67.87l-11.46,7.79-74.16,33-.36.24-.24.12-.36.12-.24.12-.36.12-.24.12-.36.12-.24.12-.36.24-.24.12-.36.12-.36.12-.24.12-.36.12-.24.12-.36.12-.24.24-.36.12-.24.12-.36.12-.24.12-.36.12-.24.12-.36.12-.24.24-.36.12-.24.12-.36.12-.24.12-.36.12-.24.12-.36.12-.36.12-.24.24-.36.12-.24.12-.36.12-.24.12-.36.12-.24.12-.36.12-.24.24-.36.12-.24.12-.36.12-.24.12-.36.12-.24.12-.36.12-.24.12-.36.24-.24.12-.36.12-.36.12-.24.12-.36.12-.24.12-.36.12-.24.24-.36.12-.24.12-.36.12-.24.12-.36.12-.24.12-.36.12-.24.12-.36.24-.24.12-.36.12-.24.12-.36.12-.24.12-.36.12-.36.12-.24.12-.36.12-.24.24-.36.12-.24.12-.36.12-.24.12-.36.12-.24.12-.36.12-.24.12-.36.12-.24.24-.36.12-.24.12-.36.12-.36.12-.24.12-.36.12-.24.12-.36.12-.24.12-.36.12-.24.24-.36.12-.24.12-.36.12-.24.12-.36.12-.24.12-.36.12-.36.12-.24.12-.36.12-.24.12-.36.24-.24.12-.36.12-.24.12-.36.12-.24.12-.36.12-.24.12-.36.12-.24.12-.36.12-.36.12-.24.12-.36.24-.24.12-.36.12-.24.12-.36.12-.24.12-.36.12-.24.12-.36.12-.24.12-.36.12-.36.12-.24.12-.36.12-.24.12-.36.12-.24.12-.36.24-.24.12-.36.12-.24.12-.36.12-.36.12-.24.12-.36.12-.24.12-.36.12.03-.05c-119.48,48.87-249.09,67.8-377.55,55.16l-.12.05c-2.54-.25-4.81-1.7-6.1-3.9s-1.45-4.89-.43-7.23h.17s81.72-187.55,81.72-187.55l-.02-.08c23.76-54.46,10.08-118.01-33.98-157.87h.03c-1.03-.93-1.8-2.12-2.23-3.44"/>
  <path class="cls-17" d="M3165.76,1776.52l-53.07,37.63c-38.4,27.4-59.93,72.69-56.93,119.77l.55,6.68c.28,4.36-3.01,8.14-7.37,8.46l-13.37,1.22-13.32,1.68-13.32,2.04-13.2,2.4-13.2,2.88-13.08,3.24-12.84,3.6-.06-.11c-4.56,1.36-9.32,1.9-14.07,1.58l-.03.07c-23.23-1.56-43.6-16.06-52.7-37.49l.11.06c-.34-.8-.67-1.6-1-2.41-9.3-22.8-14.09-47.18-14.09-71.81v.06-373.68l-.48-3.12-128.88-394.32v-.11c-1.69-5.2,1.15-10.79,6.35-12.49h.01s234.48-76.57,234.48-76.57l-7.8-24-951.84,311.04-.11-.13c-4.9,1.6-10.21-.83-12.21-5.58l.07.07-203.28-485.16-188.88,79.08-.07-.17c-5.04,2.11-10.84-.26-12.96-5.31l-.05.07-74.4-177.72,1.68-7.92"/>
</svg>